<svg width="548" height="456" viewBox="0 0 548 456" fill="none" xmlns="http://www.w3.org/2000/svg">
<rect width="380" height="96" fill="#151519"/>
<circle cx="48" cy="48" r="24" fill="#372824"/>
<path d="M40.8451 46.333H50.4999C50.9601 46.333 51.3332 45.9599 51.3332 45.4997C51.3332 45.0394 50.9601 44.6663 50.4999 44.6663H40.8451L42.7558 42.7556C43.0813 42.4302 43.0813 41.9025 42.7558 41.5771C42.4304 41.2517 41.9028 41.2517 41.5773 41.5771L38.244 44.9104C38.2246 44.9298 38.2062 44.9502 38.1888 44.9715C38.1809 44.9811 38.174 44.9913 38.1666 45.0011C38.1577 45.013 38.1485 45.0246 38.1403 45.037C38.1323 45.0488 38.1254 45.0611 38.1182 45.0733C38.1115 45.0845 38.1045 45.0954 38.0983 45.1069C38.0917 45.1193 38.086 45.1321 38.0801 45.1447C38.0744 45.1567 38.0685 45.1685 38.0633 45.1808C38.0583 45.1931 38.0541 45.2057 38.0497 45.2182C38.0449 45.2314 38.0399 45.2443 38.0358 45.2578C38.0321 45.2703 38.0293 45.283 38.0261 45.2956C38.0226 45.3093 38.0188 45.3229 38.016 45.3369C38.0131 45.3515 38.0114 45.3663 38.0093 45.381C38.0076 45.3932 38.0053 45.4052 38.004 45.4175C37.9987 45.4722 37.9987 45.5273 38.004 45.582C38.0053 45.5943 38.0076 45.6062 38.0093 45.6184C38.0114 45.6331 38.0131 45.6479 38.0161 45.6625C38.0188 45.6765 38.0227 45.6901 38.0262 45.7038C38.0293 45.7164 38.0321 45.7291 38.0359 45.7416C38.0399 45.755 38.045 45.7681 38.0497 45.7812C38.0542 45.7937 38.0583 45.8063 38.0634 45.8186C38.0685 45.8309 38.0745 45.8426 38.0801 45.8546C38.0861 45.8673 38.0917 45.88 38.0984 45.8925C38.1046 45.904 38.1115 45.9149 38.1182 45.926C38.1255 45.9382 38.1324 45.9505 38.1403 45.9624C38.1485 45.9747 38.1577 45.9863 38.1666 45.9982C38.174 46.0081 38.1809 46.0183 38.1888 46.0279C38.2061 46.049 38.2244 46.0693 38.2436 46.0885C38.2438 46.0887 38.2438 46.0888 38.244 46.089L41.5773 49.4223C41.9028 49.7477 42.4304 49.7477 42.7558 49.4223C43.0813 49.0968 43.0813 48.5692 42.7558 48.2438L40.8451 46.333Z" fill="#F6730C"/>
<path d="M57.8109 51.0277C57.8189 51.0181 57.8258 51.0079 57.8332 50.9979C57.842 50.9861 57.8512 50.9745 57.8594 50.9622C57.8674 50.9504 57.8743 50.938 57.8815 50.9258C57.8882 50.9147 57.8952 50.9038 57.9013 50.8924C57.9079 50.8799 57.9136 50.8671 57.9196 50.8544C57.9253 50.8425 57.9312 50.8307 57.9363 50.8184C57.9414 50.8061 57.9455 50.7936 57.95 50.7811C57.9547 50.7679 57.9597 50.7549 57.9638 50.7415C57.9676 50.729 57.9704 50.7163 57.9735 50.7036C57.977 50.6899 57.9808 50.6764 57.9836 50.6624C57.9865 50.6478 57.9882 50.633 57.9904 50.6183C57.9921 50.6061 57.9944 50.5942 57.9956 50.5818C58.001 50.5272 58.001 50.472 57.9956 50.4174C57.9944 50.405 57.9921 50.3931 57.9904 50.3809C57.9883 50.3662 57.9865 50.3514 57.9836 50.3368C57.9808 50.3228 57.977 50.3093 57.9735 50.2956C57.9704 50.2829 57.9676 50.2702 57.9638 50.2577C57.9597 50.2443 57.9547 50.2313 57.95 50.2181C57.9455 50.2056 57.9414 50.1931 57.9363 50.1808C57.9312 50.1685 57.9253 50.1567 57.9196 50.1448C57.9136 50.1321 57.908 50.1193 57.9013 50.1068C57.8952 50.0954 57.8882 50.0845 57.8815 50.0734C57.8743 50.0612 57.8674 50.0488 57.8594 50.037C57.8512 50.0247 57.842 50.0131 57.8332 50.0013C57.8258 49.9913 57.8188 49.9811 57.8109 49.9715C57.7938 49.9506 57.7756 49.9304 57.7565 49.9113C57.7563 49.911 57.756 49.9107 57.7557 49.9104L54.4224 46.5771C54.097 46.2517 53.5693 46.2517 53.2439 46.5771C52.9185 46.9025 52.9185 47.4302 53.2439 47.7556L55.1546 49.6663H45.4998C45.0396 49.6663 44.6665 50.0394 44.6665 50.4997C44.6665 50.9599 45.0396 51.333 45.4998 51.333H55.1546L53.2439 53.2437C52.9185 53.5691 52.9185 54.0968 53.2439 54.4222C53.5693 54.7477 54.097 54.7477 54.4224 54.4222L57.7557 51.0889C57.756 51.0886 57.7563 51.0883 57.7565 51.088C57.7756 51.0688 57.7938 51.0486 57.8109 51.0277Z" fill="#F6730C"/>
<rect opacity="0.2" x="88" y="29" width="89" height="16" fill="#494A58"/>
<rect opacity="0.2" x="88" y="51" width="250" height="16" fill="#494A58"/>
<rect x="56" y="120" width="380" height="96" fill="#151519"/>
<circle cx="104" cy="168" r="24" fill="#3A3629"/>
<circle cx="104" cy="168" r="8.75" stroke="#FADC74" stroke-width="2.5"/>
<path d="M104.692 162.944L105.599 163.098L105.292 164.874L104.385 164.72L104.692 162.944ZM102.979 172.643L103.299 170.867L104.193 171.02L103.887 172.796L102.979 172.643ZM101.114 168.937H102.647C102.741 169.227 102.933 169.465 103.222 169.653C103.512 169.832 103.895 169.921 104.372 169.921C104.696 169.921 104.947 169.891 105.126 169.832C105.305 169.772 105.428 169.687 105.497 169.576C105.565 169.465 105.599 169.337 105.599 169.193C105.599 169.014 105.543 168.877 105.433 168.784C105.322 168.682 105.152 168.601 104.922 168.541C104.692 168.481 104.398 168.426 104.04 168.375C103.682 168.315 103.337 168.243 103.005 168.158C102.673 168.064 102.379 167.949 102.123 167.813C101.868 167.676 101.663 167.502 101.51 167.289C101.365 167.067 101.293 166.799 101.293 166.484C101.293 166.177 101.365 165.905 101.51 165.666C101.663 165.427 101.872 165.227 102.136 165.065C102.409 164.895 102.724 164.767 103.082 164.682C103.448 164.597 103.844 164.554 104.27 164.554C104.9 164.554 105.42 164.648 105.829 164.835C106.246 165.023 106.557 165.278 106.762 165.602C106.975 165.926 107.081 166.301 107.081 166.727H105.612C105.543 166.42 105.407 166.194 105.203 166.049C104.998 165.905 104.683 165.832 104.257 165.832C103.848 165.832 103.533 165.9 103.312 166.037C103.099 166.164 102.992 166.339 102.992 166.56C102.992 166.731 103.056 166.867 103.184 166.969C103.32 167.063 103.516 167.144 103.772 167.212C104.036 167.272 104.364 167.336 104.755 167.404C105.088 167.472 105.407 167.549 105.714 167.634C106.02 167.719 106.293 167.83 106.532 167.966C106.77 168.094 106.958 168.264 107.094 168.477C107.239 168.69 107.311 168.963 107.311 169.295C107.311 169.704 107.192 170.053 106.953 170.343C106.715 170.624 106.378 170.837 105.944 170.982C105.509 171.126 104.99 171.199 104.385 171.199C103.712 171.199 103.158 171.114 102.724 170.943C102.289 170.764 101.949 170.547 101.702 170.292C101.463 170.036 101.297 169.785 101.203 169.538C101.118 169.291 101.088 169.09 101.114 168.937Z" fill="#FADC74"/>
<rect opacity="0.2" x="144" y="149" width="89" height="16" fill="#494A58"/>
<rect opacity="0.2" x="144" y="171" width="250" height="16" fill="#494A58"/>
<rect x="112" y="240" width="380" height="96" fill="#151519"/>
<circle cx="160" cy="288" r="24" fill="#372824"/>
<path d="M152.845 286.333H162.5C162.96 286.333 163.333 285.96 163.333 285.5C163.333 285.039 162.96 284.666 162.5 284.666H152.845L154.756 282.756C155.081 282.43 155.081 281.903 154.756 281.577C154.43 281.252 153.903 281.252 153.577 281.577L150.244 284.91C150.225 284.93 150.206 284.95 150.189 284.971C150.181 284.981 150.174 284.991 150.167 285.001C150.158 285.013 150.149 285.025 150.14 285.037C150.132 285.049 150.125 285.061 150.118 285.073C150.112 285.084 150.104 285.095 150.098 285.107C150.092 285.119 150.086 285.132 150.08 285.145C150.074 285.157 150.068 285.169 150.063 285.181C150.058 285.193 150.054 285.206 150.05 285.218C150.045 285.231 150.04 285.244 150.036 285.258C150.032 285.27 150.029 285.283 150.026 285.296C150.023 285.309 150.019 285.323 150.016 285.337C150.013 285.352 150.011 285.366 150.009 285.381C150.008 285.393 150.005 285.405 150.004 285.417C149.999 285.472 149.999 285.527 150.004 285.582C150.005 285.594 150.008 285.606 150.009 285.618C150.011 285.633 150.013 285.648 150.016 285.663C150.019 285.677 150.023 285.69 150.026 285.704C150.029 285.716 150.032 285.729 150.036 285.742C150.04 285.755 150.045 285.768 150.05 285.781C150.054 285.794 150.058 285.806 150.063 285.819C150.068 285.831 150.074 285.843 150.08 285.855C150.086 285.867 150.092 285.88 150.098 285.892C150.105 285.904 150.112 285.915 150.118 285.926C150.125 285.938 150.132 285.951 150.14 285.962C150.149 285.975 150.158 285.986 150.167 285.998C150.174 286.008 150.181 286.018 150.189 286.028C150.206 286.049 150.224 286.069 150.244 286.089C150.244 286.089 150.244 286.089 150.244 286.089L153.577 289.422C153.903 289.748 154.43 289.748 154.756 289.422C155.081 289.097 155.081 288.569 154.756 288.244L152.845 286.333Z" fill="#F6730C"/>
<path d="M169.811 291.028C169.819 291.018 169.826 291.008 169.833 290.998C169.842 290.986 169.851 290.975 169.859 290.962C169.867 290.95 169.874 290.938 169.882 290.926C169.888 290.915 169.895 290.904 169.901 290.892C169.908 290.88 169.914 290.867 169.92 290.854C169.925 290.842 169.931 290.831 169.936 290.818C169.941 290.806 169.946 290.794 169.95 290.781C169.955 290.768 169.96 290.755 169.964 290.741C169.968 290.729 169.97 290.716 169.974 290.704C169.977 290.69 169.981 290.676 169.984 290.662C169.986 290.648 169.988 290.633 169.99 290.618C169.992 290.606 169.994 290.594 169.996 290.582C170.001 290.527 170.001 290.472 169.996 290.417C169.994 290.405 169.992 290.393 169.99 290.381C169.988 290.366 169.987 290.351 169.984 290.337C169.981 290.323 169.977 290.309 169.974 290.296C169.97 290.283 169.968 290.27 169.964 290.258C169.96 290.244 169.955 290.231 169.95 290.218C169.945 290.206 169.941 290.193 169.936 290.181C169.931 290.168 169.925 290.157 169.92 290.145C169.914 290.132 169.908 290.119 169.901 290.107C169.895 290.095 169.888 290.085 169.882 290.073C169.874 290.061 169.867 290.049 169.859 290.037C169.851 290.025 169.842 290.013 169.833 290.001C169.826 289.991 169.819 289.981 169.811 289.971C169.794 289.951 169.776 289.93 169.757 289.911C169.756 289.911 169.756 289.911 169.756 289.91L166.422 286.577C166.097 286.252 165.569 286.252 165.244 286.577C164.918 286.903 164.918 287.43 165.244 287.756L167.155 289.666H157.5C157.04 289.666 156.667 290.039 156.667 290.5C156.667 290.96 157.04 291.333 157.5 291.333H167.155L165.244 293.244C164.918 293.569 164.918 294.097 165.244 294.422C165.569 294.748 166.097 294.748 166.422 294.422L169.756 291.089C169.756 291.089 169.756 291.088 169.757 291.088C169.776 291.069 169.794 291.049 169.811 291.028Z" fill="#F6730C"/>
<rect opacity="0.2" x="200" y="269" width="89" height="16" fill="#494A58"/>
<rect opacity="0.2" x="200" y="291" width="250" height="16" fill="#494A58"/>
<rect x="168" y="360" width="380" height="96" fill="#151519"/>
<circle cx="216" cy="408" r="24" fill="#262839"/>
<path d="M217 412.586L217 401C217 400.448 216.552 400 216 400C215.448 400 215 400.448 215 401L215 412.586L212.707 410.293C212.317 409.902 211.683 409.902 211.293 410.293C210.902 410.683 210.902 411.317 211.293 411.707L215.293 415.707C215.316 415.731 215.341 415.753 215.366 415.773C215.378 415.783 215.39 415.791 215.402 415.8C215.416 415.811 215.43 415.822 215.445 415.832C215.459 415.841 215.474 415.849 215.488 415.858C215.502 415.866 215.515 415.875 215.529 415.882C215.544 415.89 215.559 415.897 215.574 415.904C215.588 415.911 215.603 415.918 215.617 415.924C215.632 415.93 215.647 415.935 215.662 415.94C215.678 415.946 215.694 415.952 215.71 415.957C215.725 415.962 215.74 415.965 215.755 415.969C215.772 415.973 215.788 415.977 215.805 415.981C215.822 415.984 215.84 415.986 215.858 415.989C215.872 415.991 215.887 415.994 215.901 415.995C215.967 416.002 216.033 416.002 216.099 415.995C216.114 415.994 216.128 415.991 216.142 415.989C216.16 415.986 216.178 415.984 216.195 415.981C216.212 415.977 216.228 415.973 216.245 415.969C216.26 415.965 216.275 415.961 216.29 415.957C216.306 415.952 216.322 415.946 216.338 415.94C216.353 415.935 216.368 415.93 216.383 415.924C216.397 415.918 216.412 415.911 216.426 415.904C216.441 415.897 216.456 415.89 216.471 415.882C216.485 415.875 216.498 415.866 216.512 415.858C216.526 415.849 216.541 415.841 216.555 415.832C216.57 415.822 216.584 415.811 216.598 415.8C216.61 415.791 216.622 415.783 216.634 415.773C216.659 415.753 216.684 415.731 216.707 415.708C216.707 415.707 216.707 415.707 216.707 415.707L220.707 411.707C221.098 411.317 221.098 410.683 220.707 410.293C220.317 409.902 219.683 409.902 219.293 410.293L217 412.586Z" fill="#5D6AD7"/>
<rect opacity="0.2" x="256" y="389" width="89" height="16" fill="#494A58"/>
<rect opacity="0.2" x="256" y="411" width="250" height="16" fill="#494A58"/>
</svg>
