<svg width="322" height="324" viewBox="0 0 322 324" fill="none" xmlns="http://www.w3.org/2000/svg">
<g clip-path="url(#clip0_612_983)">
<path d="M238.833 100.001C236.532 100.001 234.666 98.1352 234.666 95.834C234.666 93.5328 236.532 91.6672 238.833 91.6672C261.833 91.6398 280.473 73.0012 280.5 50.0008V16.6676H243C240.699 16.6676 238.833 14.802 238.833 12.5008C238.833 10.1996 240.699 8.33398 243 8.33398H284.667C286.968 8.33398 288.833 10.1996 288.833 12.5008V50.0008C288.801 77.6016 266.434 99.9688 238.833 100.001Z" fill="url(#paint0_linear_612_983)"/>
<path d="M147.167 100.001C119.566 99.9688 97.1988 77.6016 97.1667 50.0008V12.5008C97.1667 10.1996 99.0324 8.33398 101.334 8.33398H143C145.301 8.33398 147.167 10.1996 147.167 12.5008C147.167 14.802 145.301 16.6676 143 16.6676H105.5V50.0008C105.528 73.0012 124.166 91.6398 147.167 91.6676C149.468 91.6676 151.334 93.5332 151.334 95.8344C151.333 98.1352 149.468 100.001 147.167 100.001Z" fill="url(#paint1_linear_612_983)"/>
<path d="M219.058 166.068L216.816 163.768C208.083 154.784 205.683 129.668 205.5 120.751C205.455 118.482 203.602 116.668 201.333 116.668H184.666C182.4 116.668 180.55 118.478 180.5 120.743C180.325 129.66 177.925 154.76 169.183 163.76L166.941 166.06C155.499 177.835 147.166 186.343 147.166 195.835C147.166 198.136 149.032 200.002 151.333 200.002H234.666C236.967 200.002 238.833 198.136 238.833 195.835C238.833 186.343 230.5 177.834 219.058 166.068Z" fill="url(#paint2_linear_612_983)"/>
<path d="M243 0H143C140.699 0 138.833 1.86563 138.833 4.1668V70.8336C139.224 100.586 163.248 124.609 193 125C222.752 124.609 246.776 100.586 247.167 70.8332V4.1668C247.167 1.86563 245.301 0 243 0Z" fill="url(#paint3_linear_612_983)"/>
</g>
<rect y="190.908" width="131" height="96" fill="#151519"/>
<path d="M131 190.908L151 170V266L131 286.908V190.908Z" fill="#101012"/>
<path d="M20 170H151L131 191H0L20 170Z" fill="#25252C"/>
<path d="M79 170H92L72 191H59L79 170Z" fill="url(#paint4_linear_612_983)"/>
<rect x="59" y="191" width="13" height="96" fill="url(#paint5_linear_612_983)"/>
<ellipse opacity="0.5" cx="77" cy="180.5" rx="12" ry="5.5" fill="#151519"/>
<path fill-rule="evenodd" clip-rule="evenodd" d="M88.8892 150.212C90.5808 149.332 93.0994 148.955 96.9893 150.232C101.128 151.59 101.211 152.905 101.22 153.049L101.22 153.05C101.238 153.343 101.157 153.928 100.63 154.874C100.109 155.81 99.2608 156.903 98.0672 158.119C94.2697 161.988 88.0419 166.063 82.2223 169.275C82.231 164.618 82.8493 159.52 84.5053 155.607C85.6435 152.918 87.1244 151.131 88.8892 150.212ZM78.0589 152.879C75.0728 159.935 74.8884 169.11 75.5134 175.262L76.0224 180.272L80.5411 178.048C87.5871 174.58 97.335 168.858 103.063 163.022C104.519 161.538 105.819 159.945 106.747 158.278C107.669 156.621 108.337 154.685 108.206 152.61C107.916 148.011 104.098 145.197 99.1716 143.58C93.9872 141.879 89.433 142.038 85.6571 144.003C81.9545 145.93 79.5734 149.3 78.0589 152.879Z" fill="url(#paint6_linear_612_983)"/>
<path fill-rule="evenodd" clip-rule="evenodd" d="M61.5925 139.786C58.8495 138.335 54.9725 137.847 49.3293 139.728C43.4473 141.689 42.577 143.842 42.5064 144.981C42.4571 145.775 42.6934 146.885 43.5049 148.367C44.3112 149.838 45.5807 151.482 47.2897 153.251C53.1282 159.294 62.9068 165.611 71.5706 170.316C71.7765 163.034 70.9971 154.538 68.3166 148.104C66.6565 144.119 64.4177 141.28 61.5925 139.786ZM74.7783 145.412C78.7861 155.032 79.0624 167.683 78.2051 176.256L77.6997 181.309L73.1572 179.038C63.4041 174.162 50.04 166.173 42.2553 158.114C40.285 156.075 38.5713 153.93 37.3658 151.73C36.1656 149.539 35.3618 147.095 35.5198 144.547C35.8637 139.003 40.3976 135.327 47.1157 133.087C54.0724 130.768 60.0163 131.034 64.8649 133.598C69.6313 136.119 72.755 140.555 74.7783 145.412Z" fill="url(#paint7_linear_612_983)"/>
<path opacity="0.5" d="M77.5 179.5C78 165.5 78 158.667 77.5 155C80.3 163 79.1667 176 79 179C78 179.5 78 179.5 77.5 179.5Z" fill="#151519"/>
<rect width="88.4568" height="64.8233" transform="matrix(-1 0 0 1 321.962 259.113)" fill="#151519"/>
<path d="M233.505 259.114L220 244.996V309.819L233.505 323.937V259.114Z" fill="#101012"/>
<path d="M308.457 244.996H220L233.505 259.176H321.962L308.457 244.996Z" fill="#25252C"/>
<path d="M268.617 244.996H259.839L273.344 259.176H282.122L268.617 244.996Z" fill="url(#paint8_linear_612_983)"/>
<rect width="8.77815" height="64.8233" transform="matrix(-1 0 0 1 282.122 259.176)" fill="url(#paint9_linear_612_983)"/>
<ellipse opacity="0.5" cx="8.10291" cy="3.71383" rx="8.10291" ry="3.71383" transform="matrix(-1 0 0 1 278.071 248.373)" fill="#151519"/>
<path fill-rule="evenodd" clip-rule="evenodd" d="M261.94 231.635C260.798 231.04 259.097 230.786 256.47 231.648C253.676 232.565 253.62 233.453 253.614 233.55L253.614 233.551C253.601 233.749 253.656 234.144 254.012 234.783C254.363 235.415 254.937 236.152 255.742 236.974C258.307 239.586 262.512 242.338 266.442 244.507C266.436 241.362 266.018 237.92 264.9 235.278C264.132 233.462 263.132 232.255 261.94 231.635ZM269.253 233.436C271.269 238.2 271.394 244.395 270.972 248.549L270.628 251.933L267.577 250.431C262.819 248.089 256.237 244.225 252.369 240.284C251.386 239.283 250.508 238.207 249.882 237.081C249.259 235.962 248.808 234.655 248.896 233.254C249.092 230.148 251.67 228.248 254.997 227.157C258.497 226.008 261.573 226.115 264.122 227.442C266.622 228.744 268.23 231.019 269.253 233.436Z" fill="url(#paint10_linear_612_983)"/>
<path fill-rule="evenodd" clip-rule="evenodd" d="M280.372 224.595C282.224 223.616 284.842 223.286 288.653 224.556C292.624 225.88 293.212 227.334 293.26 228.103C293.293 228.639 293.133 229.389 292.586 230.389C292.041 231.383 291.184 232.493 290.03 233.687C286.087 237.768 279.485 242.033 273.634 245.21C273.495 240.293 274.022 234.556 275.832 230.211C276.952 227.521 278.464 225.604 280.372 224.595ZM271.468 228.394C268.762 234.89 268.576 243.432 269.154 249.221L269.496 252.633L272.563 251.1C279.149 247.807 288.173 242.412 293.429 236.971C294.76 235.594 295.917 234.146 296.731 232.66C297.541 231.181 298.084 229.53 297.977 227.81C297.745 224.066 294.684 221.584 290.147 220.072C285.45 218.506 281.436 218.685 278.162 220.417C274.944 222.119 272.835 225.114 271.468 228.394Z" fill="url(#paint11_linear_612_983)"/>
<path opacity="0.5" d="M269.63 251.413C269.293 241.959 269.293 237.345 269.63 234.869C267.74 240.271 268.505 249.049 268.618 251.075C269.293 251.413 269.293 251.413 269.63 251.413Z" fill="#151519"/>
<defs>
<linearGradient id="paint0_linear_612_983" x1="234.666" y1="8.33398" x2="313.133" y2="40.2383" gradientUnits="userSpaceOnUse">
<stop stop-color="#3024B2"/>
<stop offset="1" stop-color="#19777D"/>
</linearGradient>
<linearGradient id="paint1_linear_612_983" x1="97.1667" y1="8.33398" x2="175.633" y2="40.2379" gradientUnits="userSpaceOnUse">
<stop stop-color="#3024B2"/>
<stop offset="1" stop-color="#19777D"/>
</linearGradient>
<linearGradient id="paint2_linear_612_983" x1="147.166" y1="116.668" x2="245.547" y2="191.131" gradientUnits="userSpaceOnUse">
<stop stop-color="#3024B2"/>
<stop offset="1" stop-color="#19777D"/>
</linearGradient>
<linearGradient id="paint3_linear_612_983" x1="138.833" y1="0" x2="273.735" y2="80.4476" gradientUnits="userSpaceOnUse">
<stop stop-color="#3024B2"/>
<stop offset="1" stop-color="#19777D"/>
</linearGradient>
<linearGradient id="paint4_linear_612_983" x1="59" y1="170" x2="84.6813" y2="197.769" gradientUnits="userSpaceOnUse">
<stop stop-color="#3764A8"/>
<stop offset="1" stop-color="#21ACA5"/>
</linearGradient>
<linearGradient id="paint5_linear_612_983" x1="59" y1="191" x2="80.7562" y2="193.027" gradientUnits="userSpaceOnUse">
<stop stop-color="#3764A8"/>
<stop offset="1" stop-color="#21ACA5"/>
</linearGradient>
<linearGradient id="paint6_linear_612_983" x1="108.222" y1="142.408" x2="67.2505" y2="166.979" gradientUnits="userSpaceOnUse">
<stop stop-color="#3764A8"/>
<stop offset="1" stop-color="#21ACA5"/>
</linearGradient>
<linearGradient id="paint7_linear_612_983" x1="35.5" y1="131.5" x2="89.2157" y2="163.483" gradientUnits="userSpaceOnUse">
<stop stop-color="#3764A8"/>
<stop offset="1" stop-color="#21ACA5"/>
</linearGradient>
<linearGradient id="paint8_linear_612_983" x1="282.122" y1="244.996" x2="264.781" y2="263.747" gradientUnits="userSpaceOnUse">
<stop stop-color="#7182BA"/>
<stop offset="1" stop-color="#9B7368"/>
</linearGradient>
<linearGradient id="paint9_linear_612_983" x1="0" y1="0" x2="14.6907" y2="1.36885" gradientUnits="userSpaceOnUse">
<stop stop-color="#7182BA"/>
<stop offset="1" stop-color="#9B7368"/>
</linearGradient>
<linearGradient id="paint10_linear_612_983" x1="248.885" y1="226.365" x2="276.551" y2="242.956" gradientUnits="userSpaceOnUse">
<stop stop-color="#7182BA"/>
<stop offset="1" stop-color="#9B7368"/>
</linearGradient>
<linearGradient id="paint11_linear_612_983" x1="297.991" y1="219" x2="261.72" y2="240.597" gradientUnits="userSpaceOnUse">
<stop stop-color="#7182BA"/>
<stop offset="1" stop-color="#9B7368"/>
</linearGradient>
<clipPath id="clip0_612_983">
<rect width="200" height="200" fill="white" transform="translate(93)"/>
</clipPath>
</defs>
</svg>
