<svg width="20" height="16" viewBox="0 0 20 16" fill="none" xmlns="http://www.w3.org/2000/svg">
<path d="M16.9419 1.5554C15.6473 0.949671 14.263 0.509453 12.8157 0.258789C12.638 0.580131 12.4304 1.01234 12.2872 1.35617C10.7487 1.1248 9.22445 1.1248 7.7143 1.35617C7.57116 1.01234 7.3588 0.580131 7.17947 0.258789C5.73067 0.509453 4.3448 0.951288 3.05016 1.55861C0.438869 5.50461 -0.269009 9.3526 0.0849305 13.146C1.81688 14.4393 3.49534 15.225 5.14548 15.7391C5.55291 15.1784 5.91628 14.5823 6.22931 13.9541C5.63313 13.7276 5.06211 13.448 4.52256 13.1235C4.6657 13.0174 4.80571 12.9066 4.94098 12.7925C8.23183 14.3317 11.8074 14.3317 15.0589 12.7925C15.1958 12.9066 15.3358 13.0174 15.4774 13.1235C14.9362 13.4496 14.3637 13.7292 13.7675 13.9557C14.0805 14.5823 14.4423 15.18 14.8513 15.7407C16.503 15.2266 18.183 14.4409 19.915 13.146C20.3303 8.74849 19.2056 4.93584 16.9419 1.5554ZM6.67765 10.8131C5.68977 10.8131 4.87963 9.89083 4.87963 8.76777C4.87963 7.6447 5.67247 6.72086 6.67765 6.72086C7.68285 6.72086 8.49297 7.64308 8.47567 8.76777C8.47723 9.89083 7.68285 10.8131 6.67765 10.8131ZM13.3223 10.8131C12.3344 10.8131 11.5243 9.89083 11.5243 8.76777C11.5243 7.6447 12.3171 6.72086 13.3223 6.72086C14.3275 6.72086 15.1376 7.64308 15.1203 8.76777C15.1203 9.89083 14.3275 10.8131 13.3223 10.8131Z" fill="white"/>
</svg>
