<svg width="174" height="174" viewBox="0 0 174 174" fill="none" xmlns="http://www.w3.org/2000/svg">
<rect width="174" height="174" rx="87" fill="#151519"/>
<g clip-path="url(#clip0_2803_2652)">
<path fill-rule="evenodd" clip-rule="evenodd" d="M86.8982 127.204C98.781 127.204 109.457 122.035 116.8 113.824C113.384 110.855 108.236 110.675 104.6 113.609L103.905 114.17C97.2465 119.543 87.5442 118.749 81.8472 112.366C78.7399 108.885 73.4184 108.529 69.8757 111.566L61.8657 118.433C68.7263 123.922 77.429 127.204 86.8982 127.204ZM99.9004 107.785C106.242 102.668 115.157 102.851 121.256 107.794C124.902 101.753 127 94.6724 127 87.1021C127 78.6899 124.41 70.8828 119.984 64.4348C117.131 63.8271 114.038 64.5368 111.69 66.6173L111.022 67.2094C104.618 72.8838 94.8899 72.539 88.9042 66.4255C85.6398 63.0912 80.3074 62.9817 76.9087 66.1792L67.5873 74.9487L62.4594 69.4983L71.7808 60.7287C78.1474 54.739 88.1362 54.9441 94.2515 61.1901C97.4468 64.4536 102.64 64.6377 106.059 61.6085L106.727 61.0164C108.802 59.1776 111.202 57.938 113.716 57.286C106.611 50.8915 97.2092 47 86.8982 47C66.5408 47 49.7263 62.1688 47.1408 81.8203C53.3242 78.853 60.9513 79.9948 65.9929 85.1577C69.1757 88.417 74.3006 88.761 77.8904 85.9564L83.1021 81.8847C89.6523 76.7675 98.9114 77.0152 105.179 82.4753L115.325 91.3157L110.409 96.9581L100.263 88.1179C96.6991 85.0129 91.434 84.872 87.7095 87.7818L82.4977 91.8537C75.902 97.0063 66.4864 96.3744 60.6387 90.3861C57.2384 86.9039 51.677 86.7824 48.1278 90.1128L47 91.1712C47.844 99.5468 51.2655 107.162 56.4592 113.211L65.005 105.885C71.6412 100.195 81.6097 100.861 87.4304 107.383C90.4717 110.791 95.6511 111.214 99.2054 108.346L99.9004 107.785Z" fill="white"/>
</g>
<defs>
<clipPath id="clip0_2803_2652">
<rect width="80" height="80.2039" fill="white" transform="translate(47 47)"/>
</clipPath>
</defs>
</svg>
