<svg width="80" height="81" viewBox="0 0 80 81" fill="none" xmlns="http://www.w3.org/2000/svg">
<path fill-rule="evenodd" clip-rule="evenodd" d="M39.8982 80.2039C51.781 80.2039 62.4569 75.0355 69.8002 66.824C66.3842 63.8553 61.2363 63.6749 57.5997 66.6092L56.905 67.1699C50.2465 72.5426 40.5442 71.7493 34.8472 65.366C31.7399 61.8847 26.4184 61.5292 22.8757 64.5662L14.8657 71.4335C21.7263 76.922 30.429 80.2039 39.8982 80.2039ZM52.9004 60.7854C59.2424 55.6678 68.1567 55.8514 74.2564 60.7939C77.9024 54.7529 80 47.6724 80 40.1021C80 31.6899 77.41 23.8828 72.9839 17.4348C70.1305 16.8271 67.0377 17.5368 64.6901 19.6173L64.0218 20.2094C57.6183 25.8838 47.8899 25.539 41.9042 19.4255C38.6398 16.0912 33.3074 15.9817 29.9087 19.1792L20.5873 27.9487L15.4594 22.4983L24.7808 13.7287C31.1474 7.73897 41.1362 7.94408 47.2515 14.1901C50.4468 17.4536 55.6402 17.6377 59.0586 14.6085L59.7268 14.0164C61.8018 12.1776 64.2024 10.938 66.7162 10.286C59.6113 3.89154 50.2092 0 39.8982 0C19.5408 0 2.72634 15.1688 0.140831 34.8203C6.32417 31.853 13.9513 32.9948 18.9929 38.1577C22.1757 41.417 27.3006 41.761 30.8904 38.9564L36.1021 34.8847C42.6523 29.7675 51.9114 30.0152 58.1785 35.4753L68.3253 44.3157L63.4095 49.9581L53.2627 41.1179C49.6991 38.0129 44.434 37.872 40.7095 40.7818L35.4977 44.8537C28.902 50.0063 19.4864 49.3744 13.6387 43.3861C10.2384 39.9039 4.67701 39.7824 1.12783 43.1128L0 44.1712C0.844039 52.5468 4.26549 60.1622 9.45919 66.2115L18.005 58.885C24.6412 53.1954 34.6097 53.8613 40.4304 60.3829C43.4717 63.7906 48.6511 64.214 52.2054 61.3458L52.9004 60.7854Z" fill="white"/>
</svg>
