<svg width="174" height="174" viewBox="0 0 174 174" fill="none" xmlns="http://www.w3.org/2000/svg">
<rect width="174" height="174" rx="87" fill="#1214FD"/>
<g clip-path="url(#clip0_2803_2653)">
<path d="M59.9946 103.855C60.4774 103.372 61.1412 103.091 61.8453 103.091H125.692C126.859 103.091 127.442 104.499 126.618 105.324L114.005 117.936C113.522 118.419 112.859 118.701 112.155 118.701H48.3074C47.1407 118.701 46.5574 117.292 47.3821 116.468L59.9946 103.855Z" fill="white"/>
<path d="M59.9946 56.7644C60.4975 56.2816 61.1613 56 61.8453 56H125.692C126.859 56 127.442 57.4081 126.618 58.2328L114.005 70.8454C113.522 71.3281 112.859 71.6098 112.155 71.6098H48.3074C47.1407 71.6098 46.5574 70.2017 47.3821 69.3769L59.9946 56.7644Z" fill="white"/>
<path d="M114.005 80.1589C113.522 79.6761 112.859 79.3945 112.155 79.3945H48.3074C47.1407 79.3945 46.5574 80.8026 47.3821 81.6274L59.9946 94.2399C60.4774 94.7227 61.1412 95.0043 61.8453 95.0043H125.692C126.859 95.0043 127.442 93.5962 126.618 92.7714L114.005 80.1589Z" fill="white"/>
</g>
<defs>
<clipPath id="clip0_2803_2653">
<rect width="80" height="62.7005" fill="white" transform="translate(47 56)"/>
</clipPath>
</defs>
</svg>
