<svg width="80" height="63" viewBox="0 0 80 63" fill="none" xmlns="http://www.w3.org/2000/svg">
<g clip-path="url(#clip0_2803_2660)">
<path d="M12.9946 47.8552C13.4774 47.3724 14.1412 47.0908 14.8453 47.0908H78.6924C79.8591 47.0908 80.4424 48.4989 79.6177 49.3237L67.0052 61.9362C66.5224 62.419 65.8586 62.7006 65.1545 62.7006H1.30742C0.140714 62.7006 -0.44264 61.2925 0.382102 60.4677L12.9946 47.8552Z" fill="white"/>
<path d="M12.9946 0.764395C13.4975 0.281619 14.1613 0 14.8453 0H78.6924C79.8591 0 80.4424 1.4081 79.6177 2.23284L67.0052 14.8454C66.5224 15.3281 65.8586 15.6098 65.1545 15.6098H1.30742C0.140714 15.6098 -0.44264 14.2017 0.382102 13.3769L12.9946 0.764395Z" fill="white"/>
<path d="M67.0052 24.1589C66.5224 23.6761 65.8586 23.3945 65.1545 23.3945H1.30742C0.140714 23.3945 -0.44264 24.8026 0.382102 25.6274L12.9946 38.2399C13.4774 38.7227 14.1412 39.0043 14.8453 39.0043H78.6924C79.8591 39.0043 80.4424 37.5962 79.6177 36.7714L67.0052 24.1589Z" fill="white"/>
</g>
<defs>
<clipPath id="clip0_2803_2660">
<rect width="80" height="62.7005" fill="white"/>
</clipPath>
</defs>
</svg>
