<svg width="1007" height="718" viewBox="0 0 1007 718" fill="none" xmlns="http://www.w3.org/2000/svg">
<rect width="963.75" height="529.5" transform="translate(0 97.25)" fill="#151519"/>
<path d="M28.992 124.858H32.952L37.872 138.25H35.184L34.104 135.298H27.864L26.784 138.25H24.096L28.992 124.858ZM28.68 133.042H33.264L31.104 127.114H30.864L28.68 133.042ZM41.6642 138.25H39.1442V122.914H41.6642V138.25ZM46.5158 138.25H43.9958V122.914H46.5158V138.25ZM54.3673 126.754C58.9033 126.754 60.4393 130.162 60.4393 132.61C60.4393 135.058 58.9033 138.466 54.3673 138.466C49.8313 138.466 48.3193 135.058 48.3193 132.61C48.3193 130.162 49.8313 126.754 54.3673 126.754ZM54.3673 136.498C57.0793 136.498 58.0633 134.266 58.0633 132.61C58.0633 130.954 57.0793 128.722 54.3673 128.722C51.6793 128.722 50.6713 130.954 50.6713 132.61C50.6713 134.266 51.6793 136.498 54.3673 136.498ZM71.0141 134.53L73.0061 135.682C72.1421 137.218 70.4861 138.466 67.7501 138.466C63.2141 138.466 61.7021 135.058 61.7021 132.61C61.7021 130.162 63.2141 126.754 67.7501 126.754C70.4861 126.754 72.1421 128.002 73.0061 129.514L71.0141 130.69C70.4861 129.61 69.4541 128.722 67.7501 128.722C65.0621 128.722 64.1981 130.954 64.1981 132.61C64.1981 134.266 65.0621 136.498 67.7501 136.498C69.4541 136.498 70.4861 135.61 71.0141 134.53ZM79.9086 126.754C84.3246 126.754 85.5726 128.818 85.5726 131.938V138.25H83.0286V137.074C81.9246 137.818 80.1966 138.466 78.4686 138.466C75.2766 138.466 74.1486 136.786 74.1486 135.082C74.1486 133.402 75.3966 131.698 78.4686 131.698C80.1966 131.698 81.9246 132.346 83.0286 133.09V131.938C83.0286 129.802 82.7166 128.818 80.0766 128.818C77.4606 128.818 75.4206 130.138 75.4206 130.138L74.2686 128.434C74.2686 128.434 76.8606 126.754 79.9086 126.754ZM83.0286 135.322V134.866C82.0686 134.098 80.6286 133.402 79.0926 133.402C77.3406 133.402 76.6686 134.194 76.6686 135.082C76.6686 135.994 77.7246 136.786 79.0926 136.786C80.6286 136.786 82.0686 136.09 83.0286 135.322ZM94.2152 128.938H91.0472V133.906C91.0472 134.986 91.0472 136.45 91.9112 136.45C92.6792 136.45 93.6392 135.946 93.6392 135.946L93.8552 137.362C93.8552 137.362 92.3672 138.466 91.1912 138.466C88.5032 138.466 88.5032 136.306 88.5032 133.906V128.938H86.6552V126.97H88.5032V123.73L91.0472 122.914V126.97H94.2152V128.938ZM98.3595 138.25H95.8395V126.97H98.3595V138.25ZM98.3595 125.458H95.8395V122.914H98.3595V125.458ZM106.211 126.754C110.747 126.754 112.283 130.162 112.283 132.61C112.283 135.058 110.747 138.466 106.211 138.466C101.675 138.466 100.163 135.058 100.163 132.61C100.163 130.162 101.675 126.754 106.211 126.754ZM106.211 136.498C108.923 136.498 109.907 134.266 109.907 132.61C109.907 130.954 108.923 128.722 106.211 128.722C103.523 128.722 102.515 130.954 102.515 132.61C102.515 134.266 103.523 136.498 106.211 136.498ZM121.25 126.754C123.938 126.754 125.498 128.458 125.498 133.354V138.25H122.954V133.354C122.954 131.65 122.954 128.986 120.674 128.986C119.018 128.986 117.458 130.21 116.594 131.53V138.25H114.074V126.97H116.594V129.202C117.578 127.954 119.426 126.754 121.25 126.754Z" fill="white"/>
<path d="M815.349 275.48C832.688 305.513 841.385 339.756 840.477 374.423C839.569 409.09 829.093 442.831 810.205 471.915C791.318 500.999 764.755 524.294 733.454 539.224C702.154 554.153 667.334 560.136 632.845 556.512L652.501 369.501L815.349 275.48Z" fill="#1214FD"/>
<path d="M550.978 199.153C594.168 174.217 645.495 167.46 693.667 180.368C741.839 193.275 782.911 224.791 807.847 267.981L644.998 362.001L550.978 199.153Z" fill="#1214FD"/>
<path d="M550.978 199.153C594.168 174.217 645.495 167.46 693.667 180.368C741.839 193.275 782.911 224.791 807.847 267.981L644.998 362.001L550.978 199.153Z" fill="black" fill-opacity="0.1"/>
<path d="M457.989 342.344C461.091 312.832 471.134 284.472 487.296 259.585C503.458 234.698 525.281 213.989 550.98 199.151L645 361.999L457.989 342.344Z" fill="#1214FD"/>
<path d="M457.989 342.344C461.091 312.832 471.134 284.472 487.296 259.585C503.458 234.698 525.281 213.989 550.98 199.151L645 361.999L457.989 342.344Z" fill="black" fill-opacity="0.2"/>
<path d="M519.175 501.742C497.123 481.886 480.082 457.092 469.448 429.389C458.813 401.685 454.887 371.857 457.988 342.345L644.999 362.001L519.175 501.742Z" fill="#1214FD"/>
<path d="M519.175 501.742C497.123 481.886 480.082 457.092 469.448 429.389C458.813 401.685 454.887 371.857 457.988 342.345L644.999 362.001L519.175 501.742Z" fill="black" fill-opacity="0.3"/>
<path d="M613.642 547.408C598.088 544.778 582.928 540.2 568.518 533.785L645.001 362.001L613.642 547.408Z" fill="#1214FD"/>
<path d="M613.642 547.408C598.088 544.778 582.928 540.2 568.518 533.785L645.001 362.001L613.642 547.408Z" fill="black" fill-opacity="0.5"/>
<path d="M568.516 533.784C550.49 525.758 533.84 514.945 519.176 501.742L645 362L568.516 533.784Z" fill="#1214FD"/>
<path d="M568.516 533.784C550.49 525.758 533.84 514.945 519.176 501.742L645 362L568.516 533.784Z" fill="black" fill-opacity="0.4"/>
<path d="M625.345 549.011C621.428 548.599 617.525 548.064 613.641 547.408L645.001 362L625.345 549.011Z" fill="#1214FD"/>
<path d="M625.345 549.011C621.428 548.599 617.525 548.064 613.641 547.408L645.001 362L625.345 549.011Z" fill="black" fill-opacity="0.6"/>
<path d="M36.618 236.768H34.746V230.72L31.866 236.768H29.652L26.754 230.72V236.768H24.9V226.706H26.79L30.75 234.95L34.728 226.706H36.618V236.768ZM42.3592 228.128C45.6712 228.128 46.6072 229.676 46.6072 232.016V236.75H44.6992V235.868C43.8712 236.426 42.5752 236.912 41.2792 236.912C38.8852 236.912 38.0392 235.652 38.0392 234.374C38.0392 233.114 38.9752 231.836 41.2792 231.836C42.5752 231.836 43.8712 232.322 44.6992 232.88V232.016C44.6992 230.414 44.4652 229.676 42.4852 229.676C40.5232 229.676 38.9932 230.666 38.9932 230.666L38.1292 229.388C38.1292 229.388 40.0732 228.128 42.3592 228.128ZM44.6992 234.554V234.212C43.9792 233.636 42.8992 233.114 41.7472 233.114C40.4332 233.114 39.9292 233.708 39.9292 234.374C39.9292 235.058 40.7212 235.652 41.7472 235.652C42.8992 235.652 43.9792 235.13 44.6992 234.554ZM52.9413 228.128C54.6873 228.128 55.7493 229.316 55.7493 229.316L54.7953 230.9C54.7953 230.9 54.0933 229.892 52.6893 229.892C51.7713 229.892 50.7813 230.54 50.1153 231.278V236.75H48.2253V228.29H50.1153V229.784C50.8173 228.938 51.8253 228.128 52.9413 228.128ZM65.6783 228.29L62.1323 231.422L65.3903 236.75H63.2303L60.7103 232.664L58.6583 234.482V236.75H56.7683V225.248H58.6583V232.286L63.1943 228.29H65.6783ZM74.6728 232.952H67.4008C67.5808 234.122 68.4808 235.418 70.2808 235.436C71.9188 235.436 72.8728 234.014 72.8728 234.014L74.3668 234.896C74.3668 234.896 73.0348 236.912 70.1368 236.912C66.7348 236.912 65.6008 234.356 65.6008 232.52C65.6008 230.684 66.7348 228.128 70.1368 228.128C73.5388 228.128 74.6908 230.684 74.6908 232.52C74.6908 232.664 74.6728 232.808 74.6728 232.952ZM67.5268 231.494H72.7468C72.4228 230.504 71.6308 229.604 70.1368 229.604C68.6428 229.604 67.8508 230.504 67.5268 231.494ZM80.845 229.766H78.469V233.492C78.469 234.302 78.469 235.4 79.117 235.4C79.693 235.4 80.413 235.022 80.413 235.022L80.575 236.084C80.575 236.084 79.459 236.912 78.577 236.912C76.561 236.912 76.561 235.292 76.561 233.492V229.766H75.175V228.29H76.561V225.86L78.469 225.248V228.29H80.845V229.766ZM83.9532 236.75H82.0632V228.29H83.9532V236.75ZM83.9532 227.156H82.0632V225.248H83.9532V227.156ZM91.0839 228.128C93.0999 228.128 94.2699 229.406 94.2699 233.078V236.75H92.3619V233.078C92.3619 231.8 92.3619 229.802 90.6519 229.802C89.4099 229.802 88.2399 230.72 87.5919 231.71V236.75H85.7019V228.29H87.5919V229.964C88.3299 229.028 89.7159 228.128 91.0839 228.128ZM102.18 228.29H104.088V236.75C104.088 238.91 102.918 240.44 99.9296 240.44C96.9236 240.44 95.6816 239.018 95.6816 239.018L96.8156 237.722C96.8156 237.722 97.8776 238.838 99.8756 238.838C101.622 238.838 102.18 237.848 102.18 236.75V235.076C101.442 236.012 100.056 236.912 98.6876 236.912C96.8516 236.912 95.5196 234.716 95.5196 232.52C95.5196 230.324 97.0496 228.128 99.2996 228.128C100.56 228.128 101.586 228.884 102.18 229.73V228.29ZM102.18 233.348V231.368C101.676 230.486 100.83 229.712 99.7316 229.712C98.7776 229.712 97.4096 230.666 97.4096 232.52C97.4096 234.374 98.1836 235.328 99.1376 235.328C100.362 235.328 101.532 234.356 102.18 233.348Z" fill="white" fill-opacity="0.7"/>
<path d="M32.451 260.107C30.534 260.107 29.13 260.782 28.914 262.321H38.661V265.777H24.864V262.753C24.864 259.108 28.644 256.651 31.911 256.651C34.53 256.651 35.07 256.273 35.07 255.247C35.07 254.194 34.476 253.87 32.316 253.87C29.508 253.87 26.214 255.814 26.214 255.814L25.89 251.953C25.89 251.953 29.454 250.468 33.099 250.468C36.879 250.468 38.985 251.872 38.985 255.112C38.985 258.73 37.014 260.107 32.451 260.107ZM50.1927 255.571C54.0267 255.571 56.2137 256.921 56.2137 260.566C56.2137 263.914 53.4867 265.993 49.0587 265.993C44.1987 265.993 40.3647 264.157 40.3647 264.157L42.6597 261.376C42.6597 261.376 45.5487 262.699 49.2747 262.699C51.6777 262.699 52.3257 261.889 52.3257 260.701C52.3257 259.513 51.6507 258.811 49.5177 258.811C46.6287 258.811 43.9557 260.269 43.9557 260.269L40.9587 258.217L42.0117 250.684H55.7817L54.5667 254.14H45.4677L45.1167 256.705C46.4127 255.976 48.2217 255.571 50.1927 255.571ZM67.3232 250.441H70.8332L65.7842 265.534H62.2742L67.3232 250.441ZM65.2982 253.816C65.2982 255.976 63.7862 257.407 61.4912 257.407C59.1962 257.407 57.6842 255.976 57.6842 253.816C57.6842 251.656 59.1962 250.225 61.4912 250.225C63.7862 250.225 65.2982 251.656 65.2982 253.816ZM61.4912 255.382C62.5982 255.382 62.9492 254.842 62.9492 253.816C62.9492 252.79 62.4902 252.25 61.4912 252.25C60.4922 252.25 60.0332 252.736 60.0332 253.816C60.0332 254.896 60.3842 255.382 61.4912 255.382ZM71.6432 258.568C73.9112 258.568 75.4502 259.999 75.4502 262.159C75.4502 264.319 73.9112 265.75 71.6432 265.75C69.3482 265.75 67.8092 264.319 67.8092 262.159C67.8092 259.999 69.3482 258.568 71.6432 258.568ZM71.6432 263.725C72.7232 263.725 73.1012 263.185 73.1012 262.159C73.1012 261.133 72.6422 260.62 71.6432 260.62C70.6442 260.62 70.1852 261.079 70.1852 262.159C70.1852 263.239 70.5362 263.725 71.6432 263.725Z" fill="white"/>
<line x1="24" y1="245.375" x2="576.75" y2="245.375" stroke="white" stroke-width="0.75"/>
<path d="M34.368 288.018C34.368 289.278 33.828 291.006 32.01 291.456L34.368 294.75H32.028L29.742 291.564H26.898V294.75H24.882V284.706H30.84C33.648 284.706 34.368 286.866 34.368 288.018ZM31.038 289.872C32.154 289.872 32.514 288.9 32.514 288.252C32.514 287.604 32.244 286.398 30.84 286.398H26.898V289.872H31.038ZM44.4033 290.952H37.1313C37.3113 292.122 38.2113 293.418 40.0113 293.436C41.6493 293.436 42.6033 292.014 42.6033 292.014L44.0973 292.896C44.0973 292.896 42.7653 294.912 39.8673 294.912C36.4653 294.912 35.3313 292.356 35.3313 290.52C35.3313 288.684 36.4653 286.128 39.8673 286.128C43.2693 286.128 44.4213 288.684 44.4213 290.52C44.4213 290.664 44.4033 290.808 44.4033 290.952ZM37.2573 289.494H42.4773C42.1533 288.504 41.3613 287.604 39.8673 287.604C38.3733 287.604 37.5813 288.504 37.2573 289.494ZM50.1388 289.71C52.3528 289.71 53.4688 290.844 53.4688 292.356C53.4688 293.868 51.9928 294.912 49.6888 294.912C47.3848 294.912 45.2248 293.814 45.2248 293.814L45.9088 292.41C45.9088 292.41 48.0688 293.364 49.5268 293.364C51.0028 293.364 51.8848 293.022 51.8848 292.32C51.8848 291.636 51.2548 291.24 49.0768 291.24C46.8808 291.24 45.7648 290.52 45.7648 288.936C45.7648 287.046 47.3848 286.128 49.6888 286.128C51.6868 286.128 53.2168 286.92 53.2168 286.92L52.6228 288.342C52.6228 288.342 50.9848 287.568 49.5448 287.568C48.1048 287.568 47.3668 288.162 47.3668 288.702C47.3668 289.242 47.6008 289.71 50.1388 289.71ZM63.5107 290.952H56.2387C56.4187 292.122 57.3187 293.418 59.1187 293.436C60.7567 293.436 61.7107 292.014 61.7107 292.014L63.2047 292.896C63.2047 292.896 61.8727 294.912 58.9747 294.912C55.5727 294.912 54.4387 292.356 54.4387 290.52C54.4387 288.684 55.5727 286.128 58.9747 286.128C62.3767 286.128 63.5287 288.684 63.5287 290.52C63.5287 290.664 63.5107 290.808 63.5107 290.952ZM56.3647 289.494H61.5847C61.2607 288.504 60.4687 287.604 58.9747 287.604C57.4807 287.604 56.6887 288.504 56.3647 289.494ZM69.5702 286.128C71.3162 286.128 72.3782 287.316 72.3782 287.316L71.4242 288.9C71.4242 288.9 70.7222 287.892 69.3182 287.892C68.4002 287.892 67.4102 288.54 66.7442 289.278V294.75H64.8542V286.29H66.7442V287.784C67.4462 286.938 68.4542 286.128 69.5702 286.128ZM80.0212 286.29H81.9652L78.8692 294.75H75.7372L72.6592 286.29H74.6032L77.0512 293.004H77.5732L80.0212 286.29ZM91.3896 290.952H84.1176C84.2976 292.122 85.1976 293.418 86.9976 293.436C88.6356 293.436 89.5896 292.014 89.5896 292.014L91.0836 292.896C91.0836 292.896 89.7516 294.912 86.8536 294.912C83.4516 294.912 82.3176 292.356 82.3176 290.52C82.3176 288.684 83.4516 286.128 86.8536 286.128C90.2556 286.128 91.4076 288.684 91.4076 290.52C91.4076 290.664 91.3896 290.808 91.3896 290.952ZM84.2436 289.494H89.4636C89.1396 288.504 88.3476 287.604 86.8536 287.604C85.3596 287.604 84.5676 288.504 84.2436 289.494Z" fill="white" fill-opacity="0.7"/>
<path d="M32.748 308.684V320.321H36.636V323.777H24.945V320.321H28.806V314.57C28.131 315.029 27.024 315.542 25.485 315.542H25.026V311.843H25.485C27.078 311.843 28.806 311.006 28.806 309.116V308.684H32.748ZM47.6879 313.571C51.5219 313.571 53.7089 314.921 53.7089 318.566C53.7089 321.914 50.9819 323.993 46.5539 323.993C41.6939 323.993 37.8599 322.157 37.8599 322.157L40.1549 319.376C40.1549 319.376 43.0439 320.699 46.7699 320.699C49.1729 320.699 49.8209 319.889 49.8209 318.701C49.8209 317.513 49.1459 316.811 47.0129 316.811C44.1239 316.811 41.4509 318.269 41.4509 318.269L38.4539 316.217L39.5069 308.684H53.2769L52.0619 312.14H42.9629L42.6119 314.705C43.9079 313.976 45.7169 313.571 47.6879 313.571ZM64.8183 308.441H68.3283L63.2793 323.534H59.7693L64.8183 308.441ZM62.7933 311.816C62.7933 313.976 61.2813 315.407 58.9863 315.407C56.6913 315.407 55.1793 313.976 55.1793 311.816C55.1793 309.656 56.6913 308.225 58.9863 308.225C61.2813 308.225 62.7933 309.656 62.7933 311.816ZM58.9863 313.382C60.0933 313.382 60.4443 312.842 60.4443 311.816C60.4443 310.79 59.9853 310.25 58.9863 310.25C57.9873 310.25 57.5283 310.736 57.5283 311.816C57.5283 312.896 57.8793 313.382 58.9863 313.382ZM69.1383 316.568C71.4063 316.568 72.9453 317.999 72.9453 320.159C72.9453 322.319 71.4063 323.75 69.1383 323.75C66.8433 323.75 65.3043 322.319 65.3043 320.159C65.3043 317.999 66.8433 316.568 69.1383 316.568ZM69.1383 321.725C70.2183 321.725 70.5963 321.185 70.5963 320.159C70.5963 319.133 70.1373 318.62 69.1383 318.62C68.1393 318.62 67.6803 319.079 67.6803 320.159C67.6803 321.239 68.0313 321.725 69.1383 321.725Z" fill="white"/>
<line x1="24" y1="303.375" x2="466.5" y2="303.375" stroke="white" stroke-width="0.75"/>
<path d="M24.09 342.706H32.946V344.398H29.526V352.75H27.51V344.398H24.09V342.706ZM41.5732 348.952H34.3012C34.4812 350.122 35.3812 351.418 37.1812 351.436C38.8192 351.436 39.7732 350.014 39.7732 350.014L41.2672 350.896C41.2672 350.896 39.9352 352.912 37.0372 352.912C33.6352 352.912 32.5012 350.356 32.5012 348.52C32.5012 346.684 33.6352 344.128 37.0372 344.128C40.4392 344.128 41.5912 346.684 41.5912 348.52C41.5912 348.664 41.5732 348.808 41.5732 348.952ZM34.4272 347.494H39.6472C39.3232 346.504 38.5312 345.604 37.0372 345.604C35.5432 345.604 34.7512 346.504 34.4272 347.494ZM46.8767 344.128C50.1887 344.128 51.1247 345.676 51.1247 348.016V352.75H49.2167V351.868C48.3887 352.426 47.0927 352.912 45.7967 352.912C43.4027 352.912 42.5567 351.652 42.5567 350.374C42.5567 349.114 43.4927 347.836 45.7967 347.836C47.0927 347.836 48.3887 348.322 49.2167 348.88V348.016C49.2167 346.414 48.9827 345.676 47.0027 345.676C45.0407 345.676 43.5107 346.666 43.5107 346.666L42.6467 345.388C42.6467 345.388 44.5907 344.128 46.8767 344.128ZM49.2167 350.554V350.212C48.4967 349.636 47.4167 349.114 46.2647 349.114C44.9507 349.114 44.4467 349.708 44.4467 350.374C44.4467 351.058 45.2387 351.652 46.2647 351.652C47.4167 351.652 48.4967 351.13 49.2167 350.554ZM64.8029 344.128C66.8189 344.128 67.9889 345.406 67.9889 349.078V352.75H66.0809V349.078C66.0809 347.8 66.0809 345.802 64.3709 345.802C63.0749 345.802 61.8329 346.414 61.1489 347.08C61.2569 347.638 61.3109 348.304 61.3109 349.078V352.75H59.4029V349.078C59.4029 347.8 59.4029 345.802 57.6929 345.802C56.4509 345.802 55.2809 346.72 54.6329 347.71V352.75H52.7429V344.29H54.6329V345.964C55.3709 345.028 56.7569 344.128 58.1249 344.128C59.4209 344.128 60.3389 344.704 60.8069 345.856C61.5089 345.046 63.1649 344.128 64.8029 344.128ZM82.9977 349.672L82.9257 349.762C82.9077 349.762 82.6377 350.05 82.2237 350.41C82.6017 350.734 82.8537 350.932 82.8537 350.932L82.9437 350.986L82.5477 352.48L82.3677 352.372C82.3677 352.372 81.8097 351.994 81.0177 351.4C79.7937 352.3 78.7317 352.75 77.8857 352.75C75.8157 352.75 74.5017 350.986 74.3577 349.564C74.2497 348.52 74.8797 347.134 76.1037 346.702C75.7257 346.108 75.5097 345.676 75.4557 345.19C75.2757 343.48 75.9417 342.4 77.6697 342.4C79.2177 342.4 80.2797 343.354 80.4417 344.884C80.5497 345.91 79.8657 347.044 78.9297 347.62C79.5237 348.196 80.2077 348.7 80.9997 349.384C81.5577 348.952 81.9357 348.61 81.9357 348.61L82.0617 348.502L82.9977 349.672ZM77.0937 348.016C76.2657 348.232 75.8157 348.826 76.0497 349.726C76.2477 350.554 77.0037 351.112 77.8137 351.112C78.2457 351.112 78.8757 350.842 79.6677 350.338C78.6237 349.474 77.7777 348.79 77.0937 348.016ZM77.8137 346.396C78.6237 346.054 79.0377 345.424 78.9837 345.01C78.9297 344.506 78.5517 344.002 77.8317 344.002C77.3097 344.002 77.0217 344.38 77.0217 344.848C77.0217 345.442 77.4177 345.91 77.8137 346.396ZM92.2557 342.706H95.2257L98.9157 352.75H96.8997L96.0897 350.536H91.4097L90.5997 352.75H88.5837L92.2557 342.706ZM92.0217 348.844H95.4597L93.8397 344.398H93.6597L92.0217 348.844ZM105.995 341.248H107.902V352.75H105.995V351.292C105.257 352.228 103.871 352.912 102.503 352.912C100.271 352.912 99.3345 350.716 99.3345 348.52C99.3345 346.324 100.901 344.128 103.115 344.128C104.375 344.128 105.401 345.1 105.995 345.946V341.248ZM105.995 349.654V347.692C105.491 346.81 104.645 345.712 103.547 345.712C101.945 345.712 101.188 347.008 101.188 348.52C101.188 350.014 101.693 351.328 102.953 351.328C104.177 351.328 105.347 350.662 105.995 349.654ZM116.267 344.29H118.211L115.115 352.75H111.983L108.905 344.29H110.849L113.297 351.004H113.819L116.267 344.29ZM121.113 352.75H119.223V344.29H121.113V352.75ZM121.113 343.156H119.223V341.248H121.113V343.156ZM127.254 347.71C129.468 347.71 130.584 348.844 130.584 350.356C130.584 351.868 129.108 352.912 126.804 352.912C124.5 352.912 122.34 351.814 122.34 351.814L123.024 350.41C123.024 350.41 125.184 351.364 126.642 351.364C128.118 351.364 129 351.022 129 350.32C129 349.636 128.37 349.24 126.192 349.24C123.996 349.24 122.88 348.52 122.88 346.936C122.88 345.046 124.5 344.128 126.804 344.128C128.802 344.128 130.332 344.92 130.332 344.92L129.738 346.342C129.738 346.342 128.1 345.568 126.66 345.568C125.22 345.568 124.482 346.162 124.482 346.702C124.482 347.242 124.716 347.71 127.254 347.71ZM136.09 344.128C139.492 344.128 140.644 346.684 140.644 348.52C140.644 350.356 139.492 352.912 136.09 352.912C132.688 352.912 131.554 350.356 131.554 348.52C131.554 346.684 132.688 344.128 136.09 344.128ZM136.09 351.436C138.124 351.436 138.862 349.762 138.862 348.52C138.862 347.278 138.124 345.604 136.09 345.604C134.074 345.604 133.318 347.278 133.318 348.52C133.318 349.762 134.074 351.436 136.09 351.436ZM146.703 344.128C148.449 344.128 149.511 345.316 149.511 345.316L148.557 346.9C148.557 346.9 147.855 345.892 146.451 345.892C145.533 345.892 144.543 346.54 143.877 347.278V352.75H141.987V344.29H143.877V345.784C144.579 344.938 145.587 344.128 146.703 344.128Z" fill="white" fill-opacity="0.7"/>
<path d="M32.748 366.684V378.321H36.636V381.777H24.945V378.321H28.806V372.57C28.131 373.029 27.024 373.542 25.485 373.542H25.026V369.843H25.485C27.078 369.843 28.806 369.006 28.806 367.116V366.684H32.748ZM47.6879 371.571C51.5219 371.571 53.7089 372.921 53.7089 376.566C53.7089 379.914 50.9819 381.993 46.5539 381.993C41.6939 381.993 37.8599 380.157 37.8599 380.157L40.1549 377.376C40.1549 377.376 43.0439 378.699 46.7699 378.699C49.1729 378.699 49.8209 377.889 49.8209 376.701C49.8209 375.513 49.1459 374.811 47.0129 374.811C44.1239 374.811 41.4509 376.269 41.4509 376.269L38.4539 374.217L39.5069 366.684H53.2769L52.0619 370.14H42.9629L42.6119 372.705C43.9079 371.976 45.7169 371.571 47.6879 371.571ZM64.8183 366.441H68.3283L63.2793 381.534H59.7693L64.8183 366.441ZM62.7933 369.816C62.7933 371.976 61.2813 373.407 58.9863 373.407C56.6913 373.407 55.1793 371.976 55.1793 369.816C55.1793 367.656 56.6913 366.225 58.9863 366.225C61.2813 366.225 62.7933 367.656 62.7933 369.816ZM58.9863 371.382C60.0933 371.382 60.4443 370.842 60.4443 369.816C60.4443 368.79 59.9853 368.25 58.9863 368.25C57.9873 368.25 57.5283 368.736 57.5283 369.816C57.5283 370.896 57.8793 371.382 58.9863 371.382ZM69.1383 374.568C71.4063 374.568 72.9453 375.999 72.9453 378.159C72.9453 380.319 71.4063 381.75 69.1383 381.75C66.8433 381.75 65.3043 380.319 65.3043 378.159C65.3043 375.999 66.8433 374.568 69.1383 374.568ZM69.1383 379.725C70.2183 379.725 70.5963 379.185 70.5963 378.159C70.5963 377.133 70.1373 376.62 69.1383 376.62C68.1393 376.62 67.6803 377.079 67.6803 378.159C67.6803 379.239 68.0313 379.725 69.1383 379.725Z" fill="white"/>
<line x1="24" y1="361.375" x2="456.75" y2="361.375" stroke="white" stroke-width="0.75"/>
<path d="M26.916 400.706V409.058H32.604V410.768H24.9V400.706H26.916ZM35.4903 410.75H33.6003V402.29H35.4903V410.75ZM35.4903 401.156H33.6003V399.248H35.4903V401.156ZM43.539 402.29H45.447V414.35H43.539V409.076C42.801 410.012 41.415 410.912 40.047 410.912C38.211 410.912 36.879 408.716 36.879 406.52C36.879 404.324 38.409 402.128 40.659 402.128C41.919 402.128 42.945 402.884 43.539 403.73V402.29ZM43.539 407.348V405.368C43.035 404.486 42.189 403.712 41.091 403.712C40.137 403.712 38.769 404.666 38.769 406.52C38.769 408.374 39.543 409.328 40.497 409.328C41.721 409.328 42.891 408.356 43.539 407.348ZM53.6862 402.29H55.5942V410.75H53.6862V409.076C52.9482 410.012 51.5622 410.912 50.1942 410.912C48.1782 410.912 47.0262 409.634 47.0262 405.962V402.29H48.9162V405.962C48.9162 407.24 48.9162 409.238 50.6442 409.238C51.8862 409.238 53.0382 408.302 53.6862 407.33V402.29ZM59.2384 410.75H57.3484V402.29H59.2384V410.75ZM59.2384 401.156H57.3484V399.248H59.2384V401.156ZM67.305 399.248H69.213V410.75H67.305V409.292C66.567 410.228 65.181 410.912 63.813 410.912C61.581 410.912 60.645 408.716 60.645 406.52C60.645 404.324 62.211 402.128 64.425 402.128C65.685 402.128 66.711 403.1 67.305 403.946V399.248ZM67.305 407.654V405.692C66.801 404.81 65.955 403.712 64.857 403.712C63.255 403.712 62.499 405.008 62.499 406.52C62.499 408.014 63.003 409.328 64.263 409.328C65.487 409.328 66.657 408.662 67.305 407.654ZM72.8438 410.75H70.9538V402.29H72.8438V410.75ZM72.8438 401.156H70.9538V399.248H72.8438V401.156ZM79.6145 403.766H77.2385V407.492C77.2385 408.302 77.2385 409.4 77.8865 409.4C78.4625 409.4 79.1825 409.022 79.1825 409.022L79.3445 410.084C79.3445 410.084 78.2285 410.912 77.3465 410.912C75.3305 410.912 75.3305 409.292 75.3305 407.492V403.766H73.9445V402.29H75.3305V399.86L77.2385 399.248V402.29H79.6145V403.766ZM87.3308 402.29H89.2388V410.75C89.2388 412.91 88.0688 414.44 85.0808 414.44C82.0748 414.44 80.8328 413.018 80.8328 413.018L81.9668 411.722C81.9668 411.722 83.0288 412.838 85.0268 412.838C86.7728 412.838 87.3308 411.866 87.3308 410.75V409.076C86.5928 410.012 85.2068 410.912 83.8388 410.912C81.8228 410.912 80.6708 409.634 80.6708 405.962V402.29H82.5608V405.962C82.5608 407.24 82.5608 409.238 84.2888 409.238C85.5308 409.238 86.6828 408.302 87.3308 407.33V402.29Z" fill="white" fill-opacity="0.7"/>
<path d="M34.557 429.571C38.391 429.571 40.578 430.921 40.578 434.566C40.578 437.914 37.851 439.993 33.423 439.993C28.563 439.993 24.729 438.157 24.729 438.157L27.024 435.376C27.024 435.376 29.913 436.699 33.639 436.699C36.042 436.699 36.69 435.889 36.69 434.701C36.69 433.513 36.015 432.811 33.882 432.811C30.993 432.811 28.32 434.269 28.32 434.269L25.323 432.217L26.376 424.684H40.146L38.931 428.14H29.832L29.481 430.705C30.777 429.976 32.586 429.571 34.557 429.571ZM51.6874 424.441H55.1974L50.1484 439.534H46.6384L51.6874 424.441ZM49.6624 427.816C49.6624 429.976 48.1504 431.407 45.8554 431.407C43.5604 431.407 42.0484 429.976 42.0484 427.816C42.0484 425.656 43.5604 424.225 45.8554 424.225C48.1504 424.225 49.6624 425.656 49.6624 427.816ZM45.8554 429.382C46.9624 429.382 47.3134 428.842 47.3134 427.816C47.3134 426.79 46.8544 426.25 45.8554 426.25C44.8564 426.25 44.3974 426.736 44.3974 427.816C44.3974 428.896 44.7484 429.382 45.8554 429.382ZM56.0074 432.568C58.2754 432.568 59.8144 433.999 59.8144 436.159C59.8144 438.319 58.2754 439.75 56.0074 439.75C53.7124 439.75 52.1734 438.319 52.1734 436.159C52.1734 433.999 53.7124 432.568 56.0074 432.568ZM56.0074 437.725C57.0874 437.725 57.4654 437.185 57.4654 436.159C57.4654 435.133 57.0064 434.62 56.0074 434.62C55.0084 434.62 54.5494 435.079 54.5494 436.159C54.5494 437.239 54.9004 437.725 56.0074 437.725Z" fill="white"/>
<line x1="24" y1="419.375" x2="592.5" y2="419.375" stroke="white" stroke-width="0.75"/>
<path d="M30.012 462.792C32.64 462.792 34.062 464.106 34.062 465.906C34.062 467.688 32.316 468.912 29.598 468.912C26.862 468.912 24.324 467.616 24.324 467.616L25.134 465.96C25.134 465.96 27.672 467.094 29.418 467.094C31.146 467.094 32.172 466.698 32.172 465.87C32.172 465.042 31.542 464.592 28.968 464.592C26.376 464.592 24.954 463.728 24.954 461.874C24.954 459.642 26.862 458.544 29.598 458.544C32.028 458.544 33.522 459.426 33.522 459.426L32.838 461.118C32.838 461.118 31.128 460.362 29.418 460.362C27.726 460.362 26.88 461.046 26.88 461.694C26.88 462.324 27.042 462.792 30.012 462.792ZM44.0517 464.952H36.7797C36.9597 466.122 37.8597 467.418 39.6597 467.436C41.2977 467.436 42.2517 466.014 42.2517 466.014L43.7457 466.896C43.7457 466.896 42.4137 468.912 39.5157 468.912C36.1137 468.912 34.9797 466.356 34.9797 464.52C34.9797 462.684 36.1137 460.128 39.5157 460.128C42.9177 460.128 44.0697 462.684 44.0697 464.52C44.0697 464.664 44.0517 464.808 44.0517 464.952ZM36.9057 463.494H42.1257C41.8017 462.504 41.0097 461.604 39.5157 461.604C38.0217 461.604 37.2297 462.504 36.9057 463.494ZM54.0713 464.952H46.7993C46.9793 466.122 47.8793 467.418 49.6793 467.436C51.3173 467.436 52.2713 466.014 52.2713 466.014L53.7653 466.896C53.7653 466.896 52.4333 468.912 49.5353 468.912C46.1333 468.912 44.9993 466.356 44.9993 464.52C44.9993 462.684 46.1333 460.128 49.5353 460.128C52.9373 460.128 54.0893 462.684 54.0893 464.52C54.0893 464.664 54.0713 464.808 54.0713 464.952ZM46.9253 463.494H52.1453C51.8213 462.504 51.0293 461.604 49.5353 461.604C48.0413 461.604 47.2493 462.504 46.9253 463.494ZM61.7328 457.248H63.6408V468.75H61.7328V467.292C60.9948 468.228 59.6088 468.912 58.2408 468.912C56.0088 468.912 55.0728 466.716 55.0728 464.52C55.0728 462.324 56.6388 460.128 58.8528 460.128C60.1128 460.128 61.1388 461.1 61.7328 461.946V457.248ZM61.7328 465.654V463.692C61.2288 462.81 60.3828 461.712 59.2848 461.712C57.6828 461.712 56.9268 463.008 56.9268 464.52C56.9268 466.014 57.4308 467.328 58.6908 467.328C59.9148 467.328 61.0848 466.662 61.7328 465.654Z" fill="white" fill-opacity="0.7"/>
<path d="M37.311 482.684V491.513H39.363V494.942H37.311V497.777H33.396V494.942H24.621V491.756L33.666 482.684H37.311ZM29.832 491.486H33.396V487.922L29.832 491.486ZM50.29 482.441H53.8L48.751 497.534H45.241L50.29 482.441ZM48.265 485.816C48.265 487.976 46.753 489.407 44.458 489.407C42.163 489.407 40.651 487.976 40.651 485.816C40.651 483.656 42.163 482.225 44.458 482.225C46.753 482.225 48.265 483.656 48.265 485.816ZM44.458 487.382C45.565 487.382 45.916 486.842 45.916 485.816C45.916 484.79 45.457 484.25 44.458 484.25C43.459 484.25 43 484.736 43 485.816C43 486.896 43.351 487.382 44.458 487.382ZM54.61 490.568C56.878 490.568 58.417 491.999 58.417 494.159C58.417 496.319 56.878 497.75 54.61 497.75C52.315 497.75 50.776 496.319 50.776 494.159C50.776 491.999 52.315 490.568 54.61 490.568ZM54.61 495.725C55.69 495.725 56.068 495.185 56.068 494.159C56.068 493.133 55.609 492.62 54.61 492.62C53.611 492.62 53.152 493.079 53.152 494.159C53.152 495.239 53.503 495.725 54.61 495.725Z" fill="white"/>
<line x1="24" y1="477.375" x2="593.25" y2="477.375" stroke="white" stroke-width="0.75"/>
<path d="M30.84 516.706C33.648 516.706 34.368 518.866 34.368 520.018C34.368 521.494 33.63 523.564 31.038 523.564H26.898V526.75H24.882V516.706H30.84ZM31.038 521.872C32.154 521.872 32.514 520.9 32.514 520.252C32.514 519.604 32.244 518.398 30.84 518.398H26.898V521.872H31.038ZM42.0847 518.29H43.9927V526.75H42.0847V525.076C41.3467 526.012 39.9607 526.912 38.5927 526.912C36.5767 526.912 35.4247 525.634 35.4247 521.962V518.29H37.3147V521.962C37.3147 523.24 37.3147 525.238 39.0427 525.238C40.2847 525.238 41.4367 524.302 42.0847 523.33V518.29ZM51.1288 518.128C52.9828 518.128 54.3148 520.324 54.3148 522.52C54.3148 524.716 52.7668 526.912 50.5348 526.912C49.2748 526.912 48.2308 526.138 47.6368 525.292V526.75H45.7468V515.248H47.6368V519.964C48.3748 519.028 49.7608 518.128 51.1288 518.128ZM50.0848 525.328C51.0388 525.328 52.4068 524.374 52.4068 522.52C52.4068 520.666 51.6508 519.712 50.6968 519.712C49.4548 519.712 48.2848 520.684 47.6368 521.692V523.672C48.1408 524.554 48.9868 525.328 50.0848 525.328ZM57.586 526.75H55.696V515.248H57.586V526.75ZM61.2247 526.75H59.3347V518.29H61.2247V526.75ZM61.2247 517.156H59.3347V515.248H61.2247V517.156ZM69.5614 523.96L71.0554 524.824C70.4074 525.976 69.1654 526.912 67.1134 526.912C63.7114 526.912 62.5774 524.356 62.5774 522.52C62.5774 520.684 63.7114 518.128 67.1134 518.128C69.1654 518.128 70.4074 519.064 71.0554 520.198L69.5614 521.08C69.1654 520.27 68.3914 519.604 67.1134 519.604C65.0974 519.604 64.4494 521.278 64.4494 522.52C64.4494 523.762 65.0974 525.436 67.1134 525.436C68.3914 525.436 69.1654 524.77 69.5614 523.96Z" fill="white" fill-opacity="0.7"/>
<path d="M32.748 540.684V552.321H36.636V555.777H24.945V552.321H28.806V546.57C28.131 547.029 27.024 547.542 25.485 547.542H25.026V543.843H25.485C27.078 543.843 28.806 543.006 28.806 541.116V540.684H32.748ZM47.3369 540.441H50.8469L45.7979 555.534H42.2879L47.3369 540.441ZM45.3119 543.816C45.3119 545.976 43.7999 547.407 41.5049 547.407C39.2099 547.407 37.6979 545.976 37.6979 543.816C37.6979 541.656 39.2099 540.225 41.5049 540.225C43.7999 540.225 45.3119 541.656 45.3119 543.816ZM41.5049 545.382C42.6119 545.382 42.9629 544.842 42.9629 543.816C42.9629 542.79 42.5039 542.25 41.5049 542.25C40.5059 542.25 40.0469 542.736 40.0469 543.816C40.0469 544.896 40.3979 545.382 41.5049 545.382ZM51.6569 548.568C53.9249 548.568 55.4639 549.999 55.4639 552.159C55.4639 554.319 53.9249 555.75 51.6569 555.75C49.3619 555.75 47.8229 554.319 47.8229 552.159C47.8229 549.999 49.3619 548.568 51.6569 548.568ZM51.6569 553.725C52.7369 553.725 53.1149 553.185 53.1149 552.159C53.1149 551.133 52.6559 550.62 51.6569 550.62C50.6579 550.62 50.1989 551.079 50.1989 552.159C50.1989 553.239 50.5499 553.725 51.6569 553.725Z" fill="white"/>
<line x1="24" y1="535.375" x2="615" y2="535.375" stroke="white" stroke-width="0.75"/>
<path d="M690.846 407.396C690.846 408.866 690.216 410.882 688.095 411.407L690.846 415.25L688.116 415.25L685.449 411.533L682.131 411.533L682.131 415.25L679.779 415.25L679.779 403.532L686.73 403.532C690.006 403.532 690.846 406.052 690.846 407.396ZM686.961 409.559C688.263 409.559 688.683 408.425 688.683 407.669C688.683 406.913 688.368 405.506 686.73 405.506L682.131 405.506L682.131 409.559L686.961 409.559ZM697.052 405.191C700.916 405.191 702.008 406.997 702.008 409.727L702.008 415.25L699.782 415.25L699.782 414.221C698.816 414.872 697.304 415.439 695.792 415.439C692.999 415.439 692.012 413.969 692.012 412.478C692.012 411.008 693.104 409.517 695.792 409.517C697.304 409.517 698.816 410.084 699.782 410.735L699.782 409.727C699.782 407.858 699.509 406.997 697.199 406.997C694.91 406.997 693.125 408.152 693.125 408.152L692.117 406.661C692.117 406.661 694.385 405.191 697.052 405.191ZM699.782 412.688L699.782 412.289C698.942 411.617 697.682 411.008 696.338 411.008C694.805 411.008 694.217 411.701 694.217 412.478C694.217 413.276 695.141 413.969 696.338 413.969C697.682 413.969 698.942 413.36 699.782 412.688ZM711.267 401.831L713.493 401.831L713.493 415.25L711.267 415.25L711.267 413.549C710.406 414.641 708.789 415.439 707.193 415.439C704.589 415.439 703.497 412.877 703.497 410.315C703.497 407.753 705.324 405.191 707.907 405.191C709.377 405.191 710.574 406.325 711.267 407.312L711.267 401.831ZM711.267 411.638L711.267 409.349C710.679 408.32 709.692 407.039 708.411 407.039C706.542 407.039 705.66 408.551 705.66 410.315C705.66 412.058 706.248 413.591 707.718 413.591C709.146 413.591 710.511 412.814 711.267 411.638ZM717.729 415.25L715.524 415.25L715.524 405.38L717.729 405.38L717.729 415.25ZM717.729 404.057L715.524 404.057L715.524 401.831L717.729 401.831L717.729 404.057ZM724.389 405.191C728.253 405.191 729.345 406.997 729.345 409.727L729.345 415.25L727.119 415.25L727.119 414.221C726.153 414.872 724.641 415.439 723.129 415.439C720.336 415.439 719.349 413.969 719.349 412.478C719.349 411.008 720.441 409.517 723.129 409.517C724.641 409.517 726.153 410.084 727.119 410.735L727.119 409.727C727.119 407.858 726.846 406.997 724.536 406.997C722.247 406.997 720.462 408.152 720.462 408.152L719.454 406.661C719.454 406.661 721.722 405.191 724.389 405.191ZM727.119 412.688L727.119 412.289C726.279 411.617 725.019 411.008 723.675 411.008C722.142 411.008 721.554 411.701 721.554 412.478C721.554 413.276 722.478 413.969 723.675 413.969C725.019 413.969 726.279 413.36 727.119 412.688ZM737.512 405.191C739.864 405.191 741.229 406.682 741.229 410.966L741.229 415.25L739.003 415.25L739.003 410.966C739.003 409.475 739.003 407.144 737.008 407.144C735.559 407.144 734.194 408.215 733.438 409.37L733.438 415.25L731.233 415.25L731.233 405.38L733.438 405.38L733.438 407.333C734.299 406.241 735.916 405.191 737.512 405.191ZM748.781 407.102L746.009 407.102L746.009 411.449C746.009 412.394 746.009 413.675 746.765 413.675C747.437 413.675 748.277 413.234 748.277 413.234L748.466 414.473C748.466 414.473 747.164 415.439 746.135 415.439C743.783 415.439 743.783 413.549 743.783 411.449L743.783 407.102L742.166 407.102L742.166 405.38L743.783 405.38L743.783 402.545L746.009 401.831L746.009 405.38L748.781 405.38L748.781 407.102ZM764.929 415.271L758.293 406.934L758.293 415.271L756.13 415.271L756.13 403.532L758.356 403.532L764.992 411.785L764.992 403.532L767.155 403.532L767.155 415.271L764.929 415.271ZM774.064 405.191C778.033 405.191 779.377 408.173 779.377 410.315C779.377 412.457 778.033 415.439 774.064 415.439C770.095 415.439 768.772 412.457 768.772 410.315C768.772 408.173 770.095 405.191 774.064 405.191ZM774.064 413.717C776.437 413.717 777.298 411.764 777.298 410.315C777.298 408.866 776.437 406.913 774.064 406.913C771.712 406.913 770.83 408.866 770.83 410.315C770.83 411.764 771.712 413.717 774.064 413.717ZM788.315 401.831L790.541 401.831L790.541 415.25L788.315 415.25L788.315 413.549C787.454 414.641 785.837 415.439 784.241 415.439C781.637 415.439 780.545 412.877 780.545 410.315C780.545 407.753 782.372 405.191 784.955 405.191C786.425 405.191 787.622 406.325 788.315 407.312L788.315 401.831ZM788.315 411.638L788.315 409.349C787.727 408.32 786.74 407.039 785.459 407.039C783.59 407.039 782.708 408.551 782.708 410.315C782.708 412.058 783.296 413.591 784.766 413.591C786.194 413.591 787.559 412.814 788.315 411.638ZM802.693 410.819L794.209 410.819C794.419 412.184 795.469 413.696 797.569 413.717C799.48 413.717 800.593 412.058 800.593 412.058L802.336 413.087C802.336 413.087 800.782 415.439 797.401 415.439C793.432 415.439 792.109 412.457 792.109 410.315C792.109 408.173 793.432 405.191 797.401 405.191C801.37 405.191 802.714 408.173 802.714 410.315C802.714 410.483 802.693 410.651 802.693 410.819ZM794.356 409.118L800.446 409.118C800.068 407.963 799.144 406.913 797.401 406.913C795.658 406.913 794.734 407.963 794.356 409.118ZM809.385 409.37C811.968 409.37 813.27 410.693 813.27 412.457C813.27 414.221 811.548 415.439 808.86 415.439C806.172 415.439 803.652 414.158 803.652 414.158L804.45 412.52C804.45 412.52 806.97 413.633 808.671 413.633C810.393 413.633 811.422 413.234 811.422 412.415C811.422 411.617 810.687 411.155 808.146 411.155C805.584 411.155 804.282 410.315 804.282 408.467C804.282 406.262 806.172 405.191 808.86 405.191C811.191 405.191 812.976 406.115 812.976 406.115L812.283 407.774C812.283 407.774 810.372 406.871 808.692 406.871C807.012 406.871 806.151 407.564 806.151 408.194C806.151 408.824 806.424 409.37 809.385 409.37Z" fill="white" fill-opacity="0.7"/>
<path d="M688.2 429.27C692.4 429.27 694.71 430.83 694.71 434.34C694.71 435.96 694.35 437.01 693.57 437.85C694.59 438.96 694.71 439.92 694.71 441.09C694.71 444.6 692.4 446.52 688.2 446.52C682.92 446.52 679.71 444.6 679.71 444.6L680.01 440.61C680.01 440.61 683.67 442.74 687.3 442.74C689.85 442.74 690.39 442.5 690.39 441.27C690.39 440.01 689.76 439.8 686.88 439.8L683.07 439.8L683.07 435.99L686.88 435.99C689.94 435.99 690.39 435.57 690.39 434.49C690.39 433.38 689.97 433.08 687.3 433.08C684.84 433.08 680.64 434.55 680.64 434.55L680.34 430.86C680.34 430.86 684.9 429.27 688.2 429.27ZM707.091 434.94C711.351 434.94 713.781 436.44 713.781 440.49C713.781 444.21 710.751 446.52 705.831 446.52C700.431 446.52 696.171 444.48 696.171 444.48L698.721 441.39C698.721 441.39 701.931 442.86 706.071 442.86C708.741 442.86 709.461 441.96 709.461 440.64C709.461 439.32 708.711 438.54 706.341 438.54C703.131 438.54 700.161 440.16 700.161 440.16L696.831 437.88L698.001 429.51L713.301 429.51L711.951 433.35L701.841 433.35L701.451 436.2C702.891 435.39 704.901 434.94 707.091 434.94ZM726.125 429.24L730.025 429.24L724.415 446.01L720.515 446.01L726.125 429.24ZM723.875 432.99C723.875 435.39 722.195 436.98 719.645 436.98C717.095 436.98 715.415 435.39 715.415 432.99C715.415 430.59 717.095 429 719.645 429C722.195 429 723.875 430.59 723.875 432.99ZM719.645 434.73C720.875 434.73 721.265 434.13 721.265 432.99C721.265 431.85 720.755 431.25 719.645 431.25C718.535 431.25 718.025 431.79 718.025 432.99C718.025 434.19 718.415 434.73 719.645 434.73ZM730.925 438.27C733.445 438.27 735.155 439.86 735.155 442.26C735.155 444.66 733.445 446.25 730.925 446.25C728.375 446.25 726.665 444.66 726.665 442.26C726.665 439.86 728.375 438.27 730.925 438.27ZM730.925 444C732.125 444 732.545 443.4 732.545 442.26C732.545 441.12 732.035 440.55 730.925 440.55C729.815 440.55 729.305 441.06 729.305 442.26C729.305 443.46 729.695 444 730.925 444Z" fill="white"/>
</svg>
