<svg width="174" height="174" viewBox="0 0 174 174" fill="none" xmlns="http://www.w3.org/2000/svg">
<rect width="174" height="174" rx="87" fill="#1214FD"/>
<g clip-path="url(#clip0_2803_2650)">
<path fill-rule="evenodd" clip-rule="evenodd" d="M106.086 80.3558C109.34 84.4444 111.301 89.6387 111.301 95.271C111.301 100.903 109.299 106.244 105.94 110.374L105.648 110.729L105.565 110.27C105.502 109.894 105.419 109.498 105.335 109.102C103.666 101.738 98.2008 95.417 89.189 90.2854C83.1186 86.8434 79.6349 82.6921 78.7171 77.9777C78.133 74.932 78.5711 71.8655 79.4055 69.2371C80.2608 66.6087 81.5124 64.4183 82.5763 63.1041L86.0808 58.8277C86.6858 58.0767 87.854 58.0767 88.4589 58.8277L106.086 80.3558ZM111.614 76.0794L88.1669 47.417C87.7288 46.8747 86.8735 46.8747 86.4355 47.417L62.9674 76.0794L62.884 76.1837C58.5867 81.5448 56 88.3453 56 95.7508C56 113.002 70.0183 127 87.2907 127C104.563 127 118.581 113.002 118.581 95.7508C118.581 88.3453 115.995 81.5448 111.677 76.1837L111.614 76.0794ZM68.5789 80.2723L70.6649 77.7065L70.7275 78.1863C70.7692 78.5618 70.8318 78.9372 70.9153 79.3127C72.2712 86.4262 77.1317 92.3714 85.2256 96.9607C92.2764 100.966 96.3651 105.576 97.5541 110.645C98.0548 112.752 98.1382 114.838 97.9296 116.653L97.9087 116.757L97.8044 116.799C94.6336 118.343 91.0456 119.219 87.2699 119.219C74.0235 119.219 63.2803 108.497 63.2803 95.271C63.2803 89.597 65.2621 84.361 68.5789 80.2723Z" fill="white"/>
</g>
<defs>
<clipPath id="clip0_2803_2650">
<rect width="62.5815" height="80" fill="white" transform="translate(56 47)"/>
</clipPath>
</defs>
</svg>
