<svg width="63" height="80" viewBox="0 0 63 80" fill="none" xmlns="http://www.w3.org/2000/svg">
<path fill-rule="evenodd" clip-rule="evenodd" d="M50.086 33.3558C53.3403 37.4444 55.3012 42.6387 55.3012 48.271C55.3012 53.9033 53.2986 59.2436 49.94 63.374L49.648 63.7286L49.5645 63.2697C49.502 62.8942 49.4185 62.4979 49.3351 62.1015C47.6662 54.7378 42.2008 48.417 33.189 43.2854C27.1186 39.8434 23.6349 35.6921 22.7171 30.9777C22.133 27.932 22.5711 24.8655 23.4055 22.2371C24.2608 19.6087 25.5124 17.4183 26.5763 16.1041L30.0808 11.8277C30.6858 11.0767 31.854 11.0767 32.4589 11.8277L50.086 33.3558ZM55.6141 29.0794L32.1669 0.417034C31.7288 -0.125339 30.8735 -0.125339 30.4355 0.417034L6.96741 29.0794L6.88396 29.1837C2.5867 34.5448 0 41.3453 0 48.7508C0 66.0024 14.0183 79.9998 31.2907 79.9998C48.5632 79.9998 62.5815 66.0024 62.5815 48.7508C62.5815 41.3453 59.9948 34.5448 55.6767 29.1837L55.6141 29.0794ZM12.5789 33.2723L14.6649 30.7065L14.7275 31.1863C14.7692 31.5618 14.8318 31.9372 14.9153 32.3127C16.2712 39.4262 21.1317 45.3714 29.2256 49.9607C36.2764 53.9659 40.3651 58.5761 41.5541 63.6452C42.0548 65.7521 42.1382 67.8382 41.9296 69.653L41.9087 69.7573L41.8044 69.799C38.6336 71.3427 35.0456 72.2189 31.2699 72.2189C18.0235 72.2189 7.28031 61.4966 7.28031 48.271C7.28031 42.597 9.26206 37.361 12.5789 33.2723Z" fill="white"/>
</svg>
