<svg width="392" height="392" viewBox="0 0 392 392" fill="none" xmlns="http://www.w3.org/2000/svg">
<rect width="174" height="174" rx="87" fill="#1214FD"/>
<g clip-path="url(#clip0_169_232)">
<path fill-rule="evenodd" clip-rule="evenodd" d="M106.086 80.3558C109.34 84.4444 111.301 89.6387 111.301 95.271C111.301 100.903 109.299 106.244 105.94 110.374L105.648 110.729L105.565 110.27C105.502 109.894 105.419 109.498 105.335 109.102C103.666 101.738 98.2008 95.417 89.189 90.2854C83.1186 86.8434 79.6349 82.6921 78.7171 77.9777C78.133 74.932 78.5711 71.8655 79.4055 69.2371C80.2608 66.6087 81.5124 64.4183 82.5763 63.1041L86.0808 58.8277C86.6858 58.0767 87.854 58.0767 88.4589 58.8277L106.086 80.3558ZM111.614 76.0794L88.1669 47.417C87.7288 46.8747 86.8735 46.8747 86.4355 47.417L62.9674 76.0794L62.884 76.1837C58.5867 81.5448 56 88.3453 56 95.7508C56 113.002 70.0183 127 87.2907 127C104.563 127 118.581 113.002 118.581 95.7508C118.581 88.3453 115.995 81.5448 111.677 76.1837L111.614 76.0794ZM68.5789 80.2723L70.6649 77.7065L70.7275 78.1863C70.7692 78.5618 70.8318 78.9372 70.9153 79.3127C72.2712 86.4262 77.1317 92.3714 85.2256 96.9607C92.2764 100.966 96.3651 105.576 97.5541 110.645C98.0548 112.752 98.1382 114.838 97.9296 116.653L97.9087 116.757L97.8044 116.799C94.6336 118.343 91.0456 119.219 87.2699 119.219C74.0235 119.219 63.2803 108.497 63.2803 95.271C63.2803 89.597 65.2621 84.361 68.5789 80.2723Z" fill="white"/>
</g>
<rect x="218" width="174" height="174" rx="87" fill="#151519"/>
<g clip-path="url(#clip1_169_232)">
<path fill-rule="evenodd" clip-rule="evenodd" d="M267.34 84.4717C288.814 75.1154 303.134 68.9472 310.299 65.9671C330.757 57.4581 335.008 55.98 337.778 55.9312C338.388 55.9204 339.75 56.0715 340.633 56.7876C341.378 57.3924 341.583 58.2092 341.681 58.7826C341.779 59.3559 341.902 60.662 341.805 61.6825C340.696 73.3307 335.899 101.598 333.459 114.644C332.426 120.164 330.393 122.015 328.424 122.196C324.146 122.59 320.898 119.369 316.755 116.653C310.271 112.403 306.609 109.757 300.315 105.61C293.042 100.817 297.757 98.1832 301.902 93.8782C302.987 92.7515 321.835 75.6075 322.2 74.0523C322.245 73.8578 322.288 73.1327 321.857 72.7499C321.426 72.367 320.791 72.498 320.332 72.6021C319.682 72.7497 309.324 79.5955 289.26 93.1397C286.32 95.1585 283.657 96.1421 281.271 96.0905C278.641 96.0337 273.581 94.6034 269.82 93.3807C265.207 91.8811 261.54 91.0883 261.859 88.5415C262.026 87.215 263.852 85.8584 267.34 84.4717Z" fill="white"/>
</g>
<rect y="218" width="174" height="174" rx="87" fill="#151519"/>
<g clip-path="url(#clip2_169_232)">
<path fill-rule="evenodd" clip-rule="evenodd" d="M86.8982 345.204C98.781 345.204 109.457 340.035 116.8 331.824C113.384 328.855 108.236 328.675 104.6 331.609L103.905 332.17C97.2465 337.543 87.5442 336.749 81.8472 330.366C78.7399 326.885 73.4184 326.529 69.8757 329.566L61.8657 336.433C68.7263 341.922 77.429 345.204 86.8982 345.204ZM99.9004 325.785C106.242 320.668 115.157 320.851 121.256 325.794C124.902 319.753 127 312.672 127 305.102C127 296.69 124.41 288.883 119.984 282.435C117.131 281.827 114.038 282.537 111.69 284.617L111.022 285.209C104.618 290.884 94.8899 290.539 88.9042 284.426C85.6398 281.091 80.3074 280.982 76.9087 284.179L67.5873 292.949L62.4594 287.498L71.7808 278.729C78.1474 272.739 88.1362 272.944 94.2515 279.19C97.4468 282.454 102.64 282.638 106.059 279.608L106.727 279.016C108.802 277.178 111.202 275.938 113.716 275.286C106.611 268.892 97.2092 265 86.8982 265C66.5408 265 49.7263 280.169 47.1408 299.82C53.3242 296.853 60.9513 297.995 65.9929 303.158C69.1757 306.417 74.3006 306.761 77.8904 303.956L83.1021 299.885C89.6523 294.768 98.9114 295.015 105.179 300.475L115.325 309.316L110.409 314.958L100.263 306.118C96.6991 303.013 91.434 302.872 87.7095 305.782L82.4977 309.854C75.902 315.006 66.4864 314.374 60.6387 308.386C57.2384 304.904 51.677 304.782 48.1278 308.113L47 309.171C47.844 317.547 51.2655 325.162 56.4592 331.211L65.005 323.885C71.6412 318.195 81.6097 318.861 87.4304 325.383C90.4717 328.791 95.6511 329.214 99.2054 326.346L99.9004 325.785Z" fill="white"/>
</g>
<rect x="218" y="218" width="174" height="174" rx="87" fill="#1214FD"/>
<g clip-path="url(#clip3_169_232)">
<path d="M277.995 321.855C278.477 321.372 279.141 321.091 279.845 321.091H343.692C344.859 321.091 345.442 322.499 344.618 323.324L332.005 335.936C331.522 336.419 330.859 336.701 330.155 336.701H266.307C265.141 336.701 264.557 335.292 265.382 334.468L277.995 321.855Z" fill="white"/>
<path d="M277.995 274.764C278.498 274.282 279.161 274 279.845 274H343.692C344.859 274 345.442 275.408 344.618 276.233L332.005 288.845C331.522 289.328 330.859 289.61 330.155 289.61H266.307C265.141 289.61 264.557 288.202 265.382 287.377L277.995 274.764Z" fill="white"/>
<path d="M332.005 298.159C331.522 297.676 330.859 297.395 330.155 297.395H266.307C265.141 297.395 264.557 298.803 265.382 299.627L277.995 312.24C278.477 312.723 279.141 313.004 279.845 313.004H343.692C344.859 313.004 345.442 311.596 344.618 310.771L332.005 298.159Z" fill="white"/>
</g>
<defs>
<clipPath id="clip0_169_232">
<rect width="62.5815" height="80" fill="white" transform="translate(56 47)"/>
</clipPath>
<clipPath id="clip1_169_232">
<rect width="80" height="80" fill="white" transform="translate(265 47)"/>
</clipPath>
<clipPath id="clip2_169_232">
<rect width="80" height="80.2039" fill="white" transform="translate(47 265)"/>
</clipPath>
<clipPath id="clip3_169_232">
<rect width="80" height="62.7005" fill="white" transform="translate(265 274)"/>
</clipPath>
</defs>
</svg>
