<svg width="174" height="174" viewBox="0 0 174 174" fill="none" xmlns="http://www.w3.org/2000/svg">
<rect width="174" height="174" rx="87" fill="#151519"/>
<g clip-path="url(#clip0_2803_2651)">
<path fill-rule="evenodd" clip-rule="evenodd" d="M49.3397 84.4717C70.8145 75.1154 85.1344 68.9472 92.2993 65.9671C112.757 57.4581 117.008 55.98 119.778 55.9312C120.388 55.9204 121.75 56.0715 122.633 56.7876C123.378 57.3924 123.583 58.2092 123.681 58.7826C123.779 59.3559 123.902 60.662 123.805 61.6825C122.696 73.3307 117.899 101.598 115.459 114.644C114.426 120.164 112.393 122.015 110.424 122.196C106.146 122.59 102.898 119.369 98.7548 116.653C92.2713 112.403 88.6086 109.757 82.3152 105.61C75.0422 100.817 79.757 98.1832 83.9019 93.8782C84.9866 92.7515 103.835 75.6075 104.2 74.0523C104.245 73.8578 104.288 73.1327 103.857 72.7499C103.426 72.367 102.791 72.498 102.332 72.6021C101.682 72.7497 91.3241 79.5955 71.2595 93.1397C68.3196 95.1585 65.6567 96.1421 63.2709 96.0905C60.6407 96.0337 55.5812 94.6034 51.82 93.3807C47.2067 91.8811 43.5402 91.0883 43.8595 88.5415C44.0258 87.215 45.8525 85.8584 49.3397 84.4717Z" fill="white"/>
</g>
<defs>
<clipPath id="clip0_2803_2651">
<rect width="80" height="80" fill="white" transform="translate(47 47)"/>
</clipPath>
</defs>
</svg>
