<svg width="1180" height="668" viewBox="0 0 1180 668" fill="none" xmlns="http://www.w3.org/2000/svg">
<path opacity="0.2" d="M1060 535.641C891 535.641 904 315.641 620 329.641" stroke="url(#paint0_linear_612_805)" stroke-width="16"/>
<path opacity="0.5" d="M1060 536C672.5 536 1060 330 620 330" stroke="url(#paint1_linear_612_805)" stroke-width="16"/>
<path d="M1060 536C807 536 917.5 330 620 330" stroke="url(#paint2_linear_612_805)" stroke-width="16"/>
<path d="M950 144C775 144 900 330 620 330" stroke="url(#paint3_linear_612_805)" stroke-width="16"/>
<path opacity="0.2" d="M950 144C775 144 965.5 330 620 330" stroke="url(#paint4_linear_612_805)" stroke-width="16"/>
<path opacity="0.5" d="M950 144C712.5 144 900 330 620 330" stroke="url(#paint5_linear_612_805)" stroke-width="16"/>
<path opacity="0.2" d="M120 120C497 116 384 325.5 620 330" stroke="url(#paint6_linear_612_805)" stroke-width="16"/>
<path d="M120 120C470 124.5 336.5 330 620 330" stroke="url(#paint7_linear_612_805)" stroke-width="16"/>
<path opacity="0.2" d="M230 568C538.5 575.5 395 330 620 330" stroke="url(#paint8_linear_612_805)" stroke-width="16"/>
<path opacity="0.5" d="M230 568C471.5 568 336.5 330 620 330" stroke="url(#paint9_linear_612_805)" stroke-width="16"/>
<path d="M230 568C542.5 568 336.5 330 620 330" stroke="url(#paint10_linear_612_805)" stroke-width="16"/>
<path opacity="0.5" d="M120 120C359.5 120 346 330 620 330" stroke="url(#paint11_linear_612_805)" stroke-width="16"/>
<circle cx="620" cy="330" r="160" fill="#151519"/>
<circle cx="230" cy="568" r="100" fill="url(#paint12_linear_612_805)"/>
<path d="M221.879 630.373C219.074 630.373 218.921 629.931 218.921 629.336C218.921 628.724 219.72 628.078 221.318 628.078C222.933 628.078 224.548 628.792 224.548 628.792L225.194 627.194C225.194 627.194 223.783 626.361 221.488 626.361C218.904 626.361 217.102 627.398 217.102 629.506C217.102 631.257 218.445 632.073 220.893 632.073C223.324 632.073 223.919 632.498 223.919 633.28C223.919 634.062 222.95 634.436 221.318 634.436C219.669 634.436 217.272 633.365 217.272 633.365L216.507 634.929C216.507 634.929 218.904 636.153 221.488 636.153C224.055 636.153 225.704 634.997 225.704 633.314C225.704 631.614 224.361 630.373 221.879 630.373ZM230.515 627.857C228.356 627.857 226.52 629.047 226.52 629.047L227.336 630.254C227.336 630.254 228.781 629.319 230.634 629.319C232.504 629.319 232.725 630.016 232.725 631.529V632.345C231.943 631.818 230.719 631.359 229.495 631.359C227.319 631.359 226.435 632.566 226.435 633.756C226.435 634.963 227.234 636.153 229.495 636.153C230.719 636.153 231.943 635.694 232.725 635.167V636H234.527V631.529C234.527 629.319 233.643 627.857 230.515 627.857ZM232.725 633.926C232.045 634.47 231.025 634.963 229.937 634.963C228.968 634.963 228.22 634.402 228.22 633.756C228.22 633.127 228.696 632.566 229.937 632.566C231.025 632.566 232.045 633.059 232.725 633.603V633.926ZM237.67 636V625.137H235.885V636H237.67ZM247.346 632.413C247.346 632.277 247.363 632.141 247.363 632.005C247.363 630.271 246.275 627.857 243.062 627.857C239.849 627.857 238.778 630.271 238.778 632.005C238.778 633.739 239.849 636.153 243.062 636.153C245.799 636.153 247.057 634.249 247.057 634.249L245.646 633.416C245.646 633.416 244.745 634.759 243.198 634.759C241.498 634.742 240.648 633.518 240.478 632.413H247.346ZM240.597 631.036C240.903 630.101 241.651 629.251 243.062 629.251C244.473 629.251 245.221 630.101 245.527 631.036H240.597Z" fill="white"/>
<path d="M206.11 569.344C214.846 569.344 216.91 566.032 216.91 560.944C216.91 555.808 213.742 552.832 207.31 552.832C200.878 552.832 195.31 555.184 195.31 555.184L195.742 560.56C195.742 560.56 200.974 557.296 205.87 557.296C210.766 557.296 211.582 558.544 211.582 561.136C211.582 563.776 210.622 564.784 205.15 564.784C199.918 564.784 193.438 569.296 193.438 575.488V580.048H216.382V575.488H198.958C198.958 572.08 201.694 569.344 206.11 569.344ZM236.42 562.336C231.812 562.336 228.02 564.16 225.956 565.888C226.772 560.896 230.132 557.056 234.74 557.056C239.78 557.056 242.612 559.168 242.612 559.168L244.436 554.896C244.436 554.896 240.452 552.832 233.876 552.832C227.108 552.832 220.628 558.496 220.628 567.184C220.628 575.872 224.564 580.432 234.884 580.432C241.796 580.432 246.116 576.832 246.116 571.6C246.116 566.368 243.476 562.336 236.42 562.336ZM235.028 576.352C230.42 576.352 226.628 574.576 225.908 569.824C228.404 568.432 232.436 566.512 235.172 566.512C239.396 566.512 240.98 568.576 240.98 570.88C240.98 573.184 240.212 576.352 235.028 576.352ZM265.146 552.784L256.17 579.616H260.73L269.706 552.784H265.146ZM271.002 568.816C267.354 568.816 265.002 571.024 265.002 574.432C265.002 577.84 267.354 580 271.002 580C274.65 580 277.002 577.84 277.002 574.432C277.002 571.024 274.65 568.816 271.002 568.816ZM271.002 577.024C268.89 577.024 268.506 576.112 268.506 574.432C268.506 572.704 268.89 571.84 271.002 571.84C273.114 571.84 273.45 572.656 273.45 574.432C273.45 576.16 273.114 577.024 271.002 577.024ZM261.018 557.968C261.018 554.56 258.666 552.4 255.018 552.4C251.37 552.4 249.066 554.56 249.066 557.968C249.066 561.376 251.37 563.584 255.018 563.584C258.666 563.584 261.018 561.376 261.018 557.968ZM255.018 560.56C252.954 560.56 252.57 559.696 252.57 557.968C252.57 556.288 252.954 555.424 255.018 555.424C257.13 555.424 257.514 556.24 257.514 557.968C257.514 559.744 257.13 560.56 255.018 560.56Z" fill="white"/>
<circle cx="1060" cy="536" r="120" fill="url(#paint13_linear_612_805)"/>
<path d="M1021.55 622.487C1019.08 622.487 1018.04 621.28 1018.04 619.257C1018.04 617.251 1019.08 616.044 1021.55 616.044C1023.08 616.044 1024.05 616.503 1024.57 617.336L1026.05 616.384C1025.12 615.16 1023.54 614.361 1021.55 614.361C1018.23 614.361 1016.09 616.554 1016.09 619.257C1016.09 621.96 1018.23 624.153 1021.55 624.153C1023.54 624.153 1025.12 623.354 1026.05 622.13L1024.57 621.195C1024.05 622.028 1023.08 622.487 1021.55 622.487ZM1030.81 615.857C1027.6 615.857 1026.53 618.271 1026.53 620.005C1026.53 621.739 1027.6 624.153 1030.81 624.153C1034.03 624.153 1035.11 621.739 1035.11 620.005C1035.11 618.271 1034.03 615.857 1030.81 615.857ZM1030.81 622.759C1028.91 622.759 1028.19 621.178 1028.19 620.005C1028.19 618.832 1028.91 617.251 1030.81 617.251C1032.73 617.251 1033.43 618.832 1033.43 620.005C1033.43 621.178 1032.73 622.759 1030.81 622.759ZM1047.6 615.857C1046.06 615.857 1044.49 616.724 1043.83 617.489C1043.39 616.401 1042.52 615.857 1041.3 615.857C1040 615.857 1038.69 616.707 1038 617.591V616.01H1036.21V624H1038V619.24C1038.61 618.305 1039.71 617.438 1040.89 617.438C1042.5 617.438 1042.5 619.325 1042.5 620.532V624H1044.3V620.532C1044.3 619.801 1044.25 619.172 1044.15 618.645C1044.8 618.016 1045.97 617.438 1047.19 617.438C1048.81 617.438 1048.81 619.325 1048.81 620.532V624H1050.61V620.532C1050.61 617.064 1049.51 615.857 1047.6 615.857ZM1063.34 615.857C1061.79 615.857 1060.23 616.724 1059.56 617.489C1059.12 616.401 1058.25 615.857 1057.03 615.857C1055.74 615.857 1054.43 616.707 1053.73 617.591V616.01H1051.95V624H1053.73V619.24C1054.34 618.305 1055.45 617.438 1056.62 617.438C1058.24 617.438 1058.24 619.325 1058.24 620.532V624H1060.04V620.532C1060.04 619.801 1059.99 619.172 1059.89 618.645C1060.53 618.016 1061.7 617.438 1062.93 617.438C1064.54 617.438 1064.54 619.325 1064.54 620.532V624H1066.35V620.532C1066.35 617.064 1065.24 615.857 1063.34 615.857ZM1073.82 616.01V620.77C1073.21 621.688 1072.12 622.572 1070.94 622.572C1069.31 622.572 1069.31 620.685 1069.31 619.478V616.01H1067.53V619.478C1067.53 622.946 1068.62 624.153 1070.52 624.153C1071.81 624.153 1073.12 623.303 1073.82 622.419V624H1075.62V616.01H1073.82ZM1082.19 615.857C1080.9 615.857 1079.59 616.707 1078.89 617.591V616.01H1077.11V624H1078.89V619.24C1079.5 618.305 1080.61 617.438 1081.78 617.438C1083.4 617.438 1083.4 619.325 1083.4 620.532V624H1085.2V620.532C1085.2 617.064 1084.09 615.857 1082.19 615.857ZM1088.33 624V616.01H1086.55V624H1088.33ZM1088.33 614.939V613.137H1086.55V614.939H1088.33ZM1094.56 617.404V616.01H1092.31V613.137L1090.51 613.715V616.01H1089.2V617.404H1090.51V620.923C1090.51 622.623 1090.51 624.153 1092.42 624.153C1093.25 624.153 1094.3 623.371 1094.3 623.371L1094.15 622.368C1094.15 622.368 1093.47 622.725 1092.93 622.725C1092.31 622.725 1092.31 621.688 1092.31 620.923V617.404H1094.56ZM1101.68 616.01V620.77C1101.06 621.688 1099.98 622.572 1098.8 622.572C1097.17 622.572 1097.17 620.685 1097.17 619.478V616.01H1095.39V619.478C1095.39 622.946 1096.47 624.153 1098.38 624.153C1099.67 624.153 1100.98 623.303 1101.68 622.419V624C1101.68 625.054 1101.15 625.972 1099.5 625.972C1097.61 625.972 1096.61 624.918 1096.61 624.918L1095.54 626.142C1095.54 626.142 1096.71 627.485 1099.55 627.485C1102.37 627.485 1103.48 626.04 1103.48 624V616.01H1101.68Z" fill="white"/>
<path d="M1046.23 528.704C1046.23 523.616 1043.01 520.832 1036.63 520.832C1031.44 520.832 1024.87 523.136 1024.87 523.136L1025.25 528.128C1025.25 528.128 1030.96 525.296 1035.19 525.296C1040.08 525.296 1040.9 526.352 1040.9 528.944C1040.9 531.536 1039.94 532.352 1034.47 532.352H1029.19V536.912H1034.47C1039.94 536.912 1040.9 537.728 1040.9 540.32C1040.9 542.912 1040.08 543.968 1035.19 543.968C1028.99 543.968 1024.29 540.368 1024.29 540.368L1023.86 545.744C1023.86 545.744 1028.27 548.432 1036.63 548.432C1043.01 548.432 1046.23 545.648 1046.23 540.56C1046.23 538.016 1045.79 535.952 1044.07 534.56C1045.7 533.168 1046.23 531.2 1046.23 528.704ZM1065.95 530.336C1061.34 530.336 1057.55 532.16 1055.49 533.888C1056.3 528.896 1059.66 525.056 1064.27 525.056C1069.31 525.056 1072.14 527.168 1072.14 527.168L1073.97 522.896C1073.97 522.896 1069.98 520.832 1063.41 520.832C1056.64 520.832 1050.16 526.496 1050.16 535.184C1050.16 543.872 1054.09 548.432 1064.41 548.432C1071.33 548.432 1075.65 544.832 1075.65 539.6C1075.65 534.368 1073.01 530.336 1065.95 530.336ZM1064.56 544.352C1059.95 544.352 1056.16 542.576 1055.44 537.824C1057.93 536.432 1061.97 534.512 1064.7 534.512C1068.93 534.512 1070.51 536.576 1070.51 538.88C1070.51 541.184 1069.74 544.352 1064.56 544.352ZM1094.68 520.784L1085.7 547.616H1090.26L1099.24 520.784H1094.68ZM1100.53 536.816C1096.89 536.816 1094.53 539.024 1094.53 542.432C1094.53 545.84 1096.89 548 1100.53 548C1104.18 548 1106.53 545.84 1106.53 542.432C1106.53 539.024 1104.18 536.816 1100.53 536.816ZM1100.53 545.024C1098.42 545.024 1098.04 544.112 1098.04 542.432C1098.04 540.704 1098.42 539.84 1100.53 539.84C1102.65 539.84 1102.98 540.656 1102.98 542.432C1102.98 544.16 1102.65 545.024 1100.53 545.024ZM1090.55 525.968C1090.55 522.56 1088.2 520.4 1084.55 520.4C1080.9 520.4 1078.6 522.56 1078.6 525.968C1078.6 529.376 1080.9 531.584 1084.55 531.584C1088.2 531.584 1090.55 529.376 1090.55 525.968ZM1084.55 528.56C1082.49 528.56 1082.1 527.696 1082.1 525.968C1082.1 524.288 1082.49 523.424 1084.55 523.424C1086.66 523.424 1087.05 524.24 1087.05 525.968C1087.05 527.744 1086.66 528.56 1084.55 528.56Z" fill="white"/>
<circle cx="120" cy="120" r="120" fill="url(#paint14_linear_612_805)"/>
<path d="M99.2228 198.514V200.112H102.453V208H104.357V200.112H107.587V198.514H99.2228ZM115.565 204.413C115.565 204.277 115.582 204.141 115.582 204.005C115.582 202.271 114.494 199.857 111.281 199.857C108.068 199.857 106.997 202.271 106.997 204.005C106.997 205.739 108.068 208.153 111.281 208.153C114.018 208.153 115.276 206.249 115.276 206.249L113.865 205.416C113.865 205.416 112.964 206.759 111.417 206.759C109.717 206.742 108.867 205.518 108.697 204.413H115.565ZM108.816 203.036C109.122 202.101 109.87 201.251 111.281 201.251C112.692 201.251 113.44 202.101 113.746 203.036H108.816ZM120.404 199.857C118.245 199.857 116.409 201.047 116.409 201.047L117.225 202.254C117.225 202.254 118.67 201.319 120.523 201.319C122.393 201.319 122.614 202.016 122.614 203.529V204.345C121.832 203.818 120.608 203.359 119.384 203.359C117.208 203.359 116.324 204.566 116.324 205.756C116.324 206.963 117.123 208.153 119.384 208.153C120.608 208.153 121.832 207.694 122.614 207.167V208H124.416V203.529C124.416 201.319 123.532 199.857 120.404 199.857ZM122.614 205.926C121.934 206.47 120.914 206.963 119.826 206.963C118.857 206.963 118.109 206.402 118.109 205.756C118.109 205.127 118.585 204.566 119.826 204.566C120.914 204.566 121.934 205.059 122.614 205.603V205.926ZM137.164 199.857C135.617 199.857 134.053 200.724 133.39 201.489C132.948 200.401 132.081 199.857 130.857 199.857C129.565 199.857 128.256 200.707 127.559 201.591V200.01H125.774V208H127.559V203.24C128.171 202.305 129.276 201.438 130.449 201.438C132.064 201.438 132.064 203.325 132.064 204.532V208H133.866V204.532C133.866 203.801 133.815 203.172 133.713 202.645C134.359 202.016 135.532 201.438 136.756 201.438C138.371 201.438 138.371 203.325 138.371 204.532V208H140.173V204.532C140.173 201.064 139.068 199.857 137.164 199.857Z" fill="white"/>
<path d="M106.227 112.704C106.227 107.616 103.011 104.832 96.6266 104.832C91.4426 104.832 84.8666 107.136 84.8666 107.136L85.2506 112.128C85.2506 112.128 90.9626 109.296 95.1866 109.296C100.083 109.296 100.899 110.352 100.899 112.944C100.899 115.536 99.9386 116.352 94.4666 116.352H89.1866V120.912H94.4666C99.9386 120.912 100.899 121.728 100.899 124.32C100.899 126.912 100.083 127.968 95.1866 127.968C88.9946 127.968 84.2906 124.368 84.2906 124.368L83.8586 129.744C83.8586 129.744 88.2746 132.432 96.6266 132.432C103.011 132.432 106.227 129.648 106.227 124.56C106.227 122.016 105.795 119.952 104.067 118.56C105.699 117.168 106.227 115.2 106.227 112.704ZM125.951 114.336C121.343 114.336 117.551 116.16 115.487 117.888C116.303 112.896 119.663 109.056 124.271 109.056C129.311 109.056 132.143 111.168 132.143 111.168L133.967 106.896C133.967 106.896 129.983 104.832 123.407 104.832C116.639 104.832 110.159 110.496 110.159 119.184C110.159 127.872 114.095 132.432 124.415 132.432C131.327 132.432 135.647 128.832 135.647 123.6C135.647 118.368 133.007 114.336 125.951 114.336ZM124.559 128.352C119.951 128.352 116.159 126.576 115.439 121.824C117.935 120.432 121.967 118.512 124.703 118.512C128.927 118.512 130.511 120.576 130.511 122.88C130.511 125.184 129.743 128.352 124.559 128.352ZM154.677 104.784L145.701 131.616H150.261L159.237 104.784H154.677ZM160.533 120.816C156.885 120.816 154.533 123.024 154.533 126.432C154.533 129.84 156.885 132 160.533 132C164.181 132 166.533 129.84 166.533 126.432C166.533 123.024 164.181 120.816 160.533 120.816ZM160.533 129.024C158.421 129.024 158.037 128.112 158.037 126.432C158.037 124.704 158.421 123.84 160.533 123.84C162.645 123.84 162.981 124.656 162.981 126.432C162.981 128.16 162.645 129.024 160.533 129.024ZM150.549 109.968C150.549 106.56 148.197 104.4 144.549 104.4C140.901 104.4 138.597 106.56 138.597 109.968C138.597 113.376 140.901 115.584 144.549 115.584C148.197 115.584 150.549 113.376 150.549 109.968ZM144.549 112.56C142.485 112.56 142.101 111.696 142.101 109.968C142.101 108.288 142.485 107.424 144.549 107.424C146.661 107.424 147.045 108.24 147.045 109.968C147.045 111.744 146.661 112.56 144.549 112.56Z" fill="white"/>
<circle cx="950" cy="144" r="80" fill="url(#paint15_linear_612_805)"/>
<path d="M921.094 182.514L917.626 192H919.53L920.295 189.909H924.715L925.48 192H927.384L923.899 182.514H921.094ZM920.873 188.311L922.42 184.112H922.59L924.12 188.311H920.873ZM933.899 181.137V185.574C933.338 184.775 932.369 183.857 931.179 183.857C929.088 183.857 927.609 185.931 927.609 188.005C927.609 190.079 928.493 192.153 930.601 192.153C931.893 192.153 933.202 191.507 933.899 190.623V192H935.701V181.137H933.899ZM933.899 189.076C933.287 190.028 932.182 190.657 931.026 190.657C929.836 190.657 929.36 189.416 929.36 188.005C929.36 186.577 930.074 185.353 931.587 185.353C932.624 185.353 933.423 186.39 933.899 187.223V189.076ZM943.431 184.01L941.119 190.351H940.626L938.314 184.01H936.478L939.385 192H942.343L945.267 184.01H943.431ZM947.838 192V184.01H946.053V192H947.838ZM947.838 182.939V181.137H946.053V182.939H947.838ZM953.468 187.24C951.071 187.24 950.85 186.798 950.85 186.288C950.85 185.778 951.547 185.217 952.907 185.217C954.267 185.217 955.814 185.948 955.814 185.948L956.375 184.605C956.375 184.605 954.93 183.857 953.043 183.857C950.867 183.857 949.337 184.724 949.337 186.509C949.337 188.005 950.391 188.685 952.465 188.685C954.522 188.685 955.117 189.059 955.117 189.705C955.117 190.368 954.284 190.691 952.89 190.691C951.513 190.691 949.473 189.79 949.473 189.79L948.827 191.116C948.827 191.116 950.867 192.153 953.043 192.153C955.219 192.153 956.613 191.167 956.613 189.739C956.613 188.311 955.559 187.24 953.468 187.24ZM961.643 183.857C958.43 183.857 957.359 186.271 957.359 188.005C957.359 189.739 958.43 192.153 961.643 192.153C964.856 192.153 965.944 189.739 965.944 188.005C965.944 186.271 964.856 183.857 961.643 183.857ZM961.643 190.759C959.739 190.759 959.025 189.178 959.025 188.005C959.025 186.832 959.739 185.251 961.643 185.251C963.564 185.251 964.261 186.832 964.261 188.005C964.261 189.178 963.564 190.759 961.643 190.759ZM971.496 183.857C970.442 183.857 969.49 184.622 968.827 185.421V184.01H967.042V192H968.827V186.832C969.456 186.135 970.391 185.523 971.258 185.523C972.584 185.523 973.247 186.475 973.247 186.475L974.148 184.979C974.148 184.979 973.145 183.857 971.496 183.857ZM978.823 187.24C976.426 187.24 976.205 186.798 976.205 186.288C976.205 185.778 976.902 185.217 978.262 185.217C979.622 185.217 981.169 185.948 981.169 185.948L981.73 184.605C981.73 184.605 980.285 183.857 978.398 183.857C976.222 183.857 974.692 184.724 974.692 186.509C974.692 188.005 975.746 188.685 977.82 188.685C979.877 188.685 980.472 189.059 980.472 189.705C980.472 190.368 979.639 190.691 978.245 190.691C976.868 190.691 974.828 189.79 974.828 189.79L974.182 191.116C974.182 191.116 976.222 192.153 978.398 192.153C980.574 192.153 981.968 191.167 981.968 189.739C981.968 188.311 980.914 187.24 978.823 187.24Z" fill="white"/>
<path d="M929.43 129.216H924.006C924.006 133.056 920.55 134.832 917.286 134.832V139.776C921.846 139.776 924.006 137.184 924.006 137.184V151.488H917.142V156.048H936.294V151.488H929.43V129.216ZM951.516 145.344C960.252 145.344 962.316 142.032 962.316 136.944C962.316 131.808 959.148 128.832 952.716 128.832C946.284 128.832 940.716 131.184 940.716 131.184L941.148 136.56C941.148 136.56 946.38 133.296 951.276 133.296C956.172 133.296 956.988 134.544 956.988 137.136C956.988 139.776 956.028 140.784 950.556 140.784C945.324 140.784 938.844 145.296 938.844 151.488V156.048H961.788V151.488H944.364C944.364 148.08 947.1 145.344 951.516 145.344ZM981.49 128.784L972.514 155.616H977.074L986.05 128.784H981.49ZM987.346 144.816C983.698 144.816 981.346 147.024 981.346 150.432C981.346 153.84 983.698 156 987.346 156C990.994 156 993.346 153.84 993.346 150.432C993.346 147.024 990.994 144.816 987.346 144.816ZM987.346 153.024C985.234 153.024 984.85 152.112 984.85 150.432C984.85 148.704 985.234 147.84 987.346 147.84C989.458 147.84 989.794 148.656 989.794 150.432C989.794 152.16 989.458 153.024 987.346 153.024ZM977.362 133.968C977.362 130.56 975.01 128.4 971.362 128.4C967.714 128.4 965.41 130.56 965.41 133.968C965.41 137.376 967.714 139.584 971.362 139.584C975.01 139.584 977.362 137.376 977.362 133.968ZM971.362 136.56C969.298 136.56 968.914 135.696 968.914 133.968C968.914 132.288 969.298 131.424 971.362 131.424C973.474 131.424 973.858 132.24 973.858 133.968C973.858 135.744 973.474 136.56 971.362 136.56Z" fill="white"/>
<path d="M556.912 293.216V297.728H566.032V320H571.408V297.728H580.528V293.216H556.912ZM591.438 297.008C582.366 297.008 579.342 303.824 579.342 308.72C579.342 313.616 582.366 320.432 591.438 320.432C600.51 320.432 603.582 313.616 603.582 308.72C603.582 303.824 600.51 297.008 591.438 297.008ZM591.438 316.496C586.062 316.496 584.046 312.032 584.046 308.72C584.046 305.408 586.062 300.944 591.438 300.944C596.862 300.944 598.83 305.408 598.83 308.72C598.83 312.032 596.862 316.496 591.438 316.496ZM630.923 297.44H624.299L612.203 308.096V289.328H607.163V320H612.203V313.952L617.675 309.104L624.395 320H630.155L621.467 305.792L630.923 297.44ZM654.909 309.872C654.909 309.488 654.957 309.104 654.957 308.72C654.957 303.824 651.885 297.008 642.813 297.008C633.741 297.008 630.717 303.824 630.717 308.72C630.717 313.616 633.741 320.432 642.813 320.432C650.541 320.432 654.093 315.056 654.093 315.056L650.109 312.704C650.109 312.704 647.565 316.496 643.197 316.496C638.397 316.448 635.997 312.992 635.517 309.872H654.909ZM635.853 305.984C636.717 303.344 638.829 300.944 642.813 300.944C646.797 300.944 648.909 303.344 649.773 305.984H635.853ZM672.844 297.008C669.196 297.008 665.5 299.408 663.532 301.904V297.44H658.492V320H663.532V306.56C665.26 303.92 668.38 301.472 671.692 301.472C676.252 301.472 676.252 306.8 676.252 310.208V320H681.34V310.208C681.34 300.416 678.22 297.008 672.844 297.008ZM531.262 340.008C525.166 340.008 519.982 343.368 519.982 343.368L522.286 346.776C522.286 346.776 526.366 344.136 531.598 344.136C536.878 344.136 537.502 346.104 537.502 350.376V352.68C535.294 351.192 531.838 349.896 528.382 349.896C522.238 349.896 519.742 353.304 519.742 356.664C519.742 360.072 521.998 363.432 528.382 363.432C531.838 363.432 535.294 362.136 537.502 360.648V363H542.59V350.376C542.59 344.136 540.094 340.008 531.262 340.008ZM537.502 357.144C535.582 358.68 532.702 360.072 529.63 360.072C526.894 360.072 524.782 358.488 524.782 356.664C524.782 354.888 526.126 353.304 529.63 353.304C532.702 353.304 535.582 354.696 537.502 356.232V357.144ZM551.946 363V332.328H546.906V363H551.946ZM561.649 363V332.328H556.609V363H561.649ZM577.352 340.008C568.28 340.008 565.256 346.824 565.256 351.72C565.256 356.616 568.28 363.432 577.352 363.432C586.424 363.432 589.496 356.616 589.496 351.72C589.496 346.824 586.424 340.008 577.352 340.008ZM577.352 359.496C571.976 359.496 569.96 355.032 569.96 351.72C569.96 348.408 571.976 343.944 577.352 343.944C582.776 343.944 584.744 348.408 584.744 351.72C584.744 355.032 582.776 359.496 577.352 359.496ZM610.645 355.56C609.589 357.72 607.525 359.496 604.117 359.496C598.741 359.496 597.013 355.032 597.013 351.72C597.013 348.408 598.741 343.944 604.117 343.944C607.525 343.944 609.589 345.72 610.645 347.88L614.629 345.528C612.901 342.504 609.589 340.008 604.117 340.008C595.045 340.008 592.021 346.824 592.021 351.72C592.021 356.616 595.045 363.432 604.117 363.432C609.589 363.432 612.901 360.936 614.629 357.864L610.645 355.56ZM628.434 340.008C622.338 340.008 617.154 343.368 617.154 343.368L619.458 346.776C619.458 346.776 623.538 344.136 628.77 344.136C634.05 344.136 634.674 346.104 634.674 350.376V352.68C632.466 351.192 629.01 349.896 625.554 349.896C619.41 349.896 616.914 353.304 616.914 356.664C616.914 360.072 619.17 363.432 625.554 363.432C629.01 363.432 632.466 362.136 634.674 360.648V363H639.762V350.376C639.762 344.136 637.266 340.008 628.434 340.008ZM634.674 357.144C632.754 358.68 629.874 360.072 626.802 360.072C624.066 360.072 621.954 358.488 621.954 356.664C621.954 354.888 623.298 353.304 626.802 353.304C629.874 353.304 632.754 354.696 634.674 356.232V357.144ZM657.048 344.376V340.44H650.712V332.328L645.624 333.96V340.44H641.928V344.376H645.624V354.312C645.624 359.112 645.624 363.432 651 363.432C653.352 363.432 656.328 361.224 656.328 361.224L655.896 358.392C655.896 358.392 653.976 359.4 652.44 359.4C650.712 359.4 650.712 356.472 650.712 354.312V344.376H657.048ZM665.336 363V340.44H660.296V363H665.336ZM665.336 337.416V332.328H660.296V337.416H665.336ZM681.039 340.008C671.967 340.008 668.943 346.824 668.943 351.72C668.943 356.616 671.967 363.432 681.039 363.432C690.111 363.432 693.183 356.616 693.183 351.72C693.183 346.824 690.111 340.008 681.039 340.008ZM681.039 359.496C675.663 359.496 673.647 355.032 673.647 351.72C673.647 348.408 675.663 343.944 681.039 343.944C686.463 343.944 688.431 348.408 688.431 351.72C688.431 355.032 686.463 359.496 681.039 359.496ZM711.117 340.008C707.469 340.008 703.773 342.408 701.805 344.904V340.44H696.765V363H701.805V349.56C703.533 346.92 706.653 344.472 709.965 344.472C714.525 344.472 714.525 349.8 714.525 353.208V363H719.613V353.208C719.613 343.416 716.493 340.008 711.117 340.008Z" fill="white"/>
<defs>
<linearGradient id="paint0_linear_612_805" x1="1060" y1="535.641" x2="620" y2="329.644" gradientUnits="userSpaceOnUse">
<stop stop-color="#2E3891"/>
<stop offset="1" stop-color="#287EB0"/>
</linearGradient>
<linearGradient id="paint1_linear_612_805" x1="1060" y1="536" x2="619.999" y2="330.003" gradientUnits="userSpaceOnUse">
<stop stop-color="#2E3891"/>
<stop offset="1" stop-color="#287EB0"/>
</linearGradient>
<linearGradient id="paint2_linear_612_805" x1="1060" y1="536" x2="619.999" y2="330.003" gradientUnits="userSpaceOnUse">
<stop stop-color="#2E3891"/>
<stop offset="1" stop-color="#287EB0"/>
</linearGradient>
<linearGradient id="paint3_linear_612_805" x1="620" y1="330.001" x2="912.704" y2="97.1223" gradientUnits="userSpaceOnUse">
<stop stop-color="#91777D"/>
<stop offset="1" stop-color="#3F55AF"/>
</linearGradient>
<linearGradient id="paint4_linear_612_805" x1="620" y1="330.001" x2="912.704" y2="97.1223" gradientUnits="userSpaceOnUse">
<stop stop-color="#91777D"/>
<stop offset="1" stop-color="#3F55AF"/>
</linearGradient>
<linearGradient id="paint5_linear_612_805" x1="620" y1="330.001" x2="912.704" y2="97.1223" gradientUnits="userSpaceOnUse">
<stop stop-color="#91777D"/>
<stop offset="1" stop-color="#3F55AF"/>
</linearGradient>
<linearGradient id="paint6_linear_612_805" x1="120" y1="119.878" x2="620.087" y2="329.792" gradientUnits="userSpaceOnUse">
<stop stop-color="#279AA6"/>
<stop offset="1" stop-color="#7980AC"/>
</linearGradient>
<linearGradient id="paint7_linear_612_805" x1="120" y1="120" x2="620" y2="330" gradientUnits="userSpaceOnUse">
<stop stop-color="#279AA6"/>
<stop offset="1" stop-color="#7980AC"/>
</linearGradient>
<linearGradient id="paint8_linear_612_805" x1="230" y1="568" x2="619.999" y2="330.003" gradientUnits="userSpaceOnUse">
<stop stop-color="#3024B2"/>
<stop offset="1" stop-color="#19777D"/>
</linearGradient>
<linearGradient id="paint9_linear_612_805" x1="230" y1="568" x2="619.999" y2="330.002" gradientUnits="userSpaceOnUse">
<stop stop-color="#3024B2"/>
<stop offset="1" stop-color="#19777D"/>
</linearGradient>
<linearGradient id="paint10_linear_612_805" x1="230" y1="568" x2="619.999" y2="330.002" gradientUnits="userSpaceOnUse">
<stop stop-color="#3024B2"/>
<stop offset="1" stop-color="#19777D"/>
</linearGradient>
<linearGradient id="paint11_linear_612_805" x1="120" y1="120" x2="620" y2="330" gradientUnits="userSpaceOnUse">
<stop stop-color="#279AA6"/>
<stop offset="1" stop-color="#7980AC"/>
</linearGradient>
<linearGradient id="paint12_linear_612_805" x1="130" y1="468" x2="359.132" y2="625.662" gradientUnits="userSpaceOnUse">
<stop stop-color="#3024B2"/>
<stop offset="1" stop-color="#19777D"/>
</linearGradient>
<linearGradient id="paint13_linear_612_805" x1="940" y1="416" x2="1214.96" y2="605.194" gradientUnits="userSpaceOnUse">
<stop stop-color="#434DAE"/>
<stop offset="1" stop-color="#287EB0"/>
<stop offset="1" stop-color="#287EB0"/>
</linearGradient>
<linearGradient id="paint14_linear_612_805" x1="0" y1="0" x2="274.958" y2="189.194" gradientUnits="userSpaceOnUse">
<stop stop-color="#3764A8"/>
<stop offset="1" stop-color="#21ACA5"/>
</linearGradient>
<linearGradient id="paint15_linear_612_805" x1="870" y1="64" x2="1053.31" y2="190.13" gradientUnits="userSpaceOnUse">
<stop stop-color="#7182BA"/>
<stop offset="1" stop-color="#9B7368"/>
</linearGradient>
</defs>
</svg>
